<svg width="104" height="127" viewBox="0 0 104 127" fill="none" xmlns="http://www.w3.org/2000/svg">
<path d="M3.5918 95.2012C5.44068 97.7639 7.96341 99.6651 11.1709 100.378L18.0557 101.908C18.7729 102.068 19.4991 102.148 20.2266 102.148H90.6377C94.5919 102.148 97.7746 100.128 100.069 97.0557C102.854 101.538 103.626 107.501 102.674 112.94C101.368 120.399 96.9116 126.5 90.4189 126.5H20.0078C19.3543 126.5 18.7013 126.428 18.0547 126.284L11.1689 124.754C7.63401 123.968 4.96693 121.598 3.17676 118.383C1.3837 115.162 0.485362 111.114 0.5 107.053C0.514677 102.992 1.44197 98.9565 3.25781 95.7617C3.36584 95.5717 3.4776 95.385 3.5918 95.2012ZM69.7598 77.3555C72.3463 76.818 75.0006 77.4309 77.3525 79.1396L96.1816 92.8203C97.4697 93.7562 98.5681 94.8903 99.4834 96.1699C97.3166 99.2039 94.3022 101.148 90.6377 101.148H20.2266C19.5729 101.148 18.9193 101.076 18.2725 100.933L11.3877 99.4023C8.34118 98.7252 5.94096 96.8702 4.18945 94.3125C5.94652 91.8743 8.31551 90.1247 11.293 89.5059L69.7598 77.3555ZM99.9756 71.2188C103.015 75.7501 103.88 81.9511 102.893 87.5889C102.393 90.4403 101.431 93.0918 100.073 95.2812C99.1458 94.0452 98.0478 92.9395 96.7695 92.0107L77.9404 78.3301C76.1538 77.0321 74.1815 76.3038 72.1709 76.1855H90.6377C94.5379 76.1855 97.6882 74.2207 99.9756 71.2188ZM3.91992 69.6797C5.73527 72.0192 8.14992 73.7446 11.1709 74.416L18.0557 75.9453C18.7729 76.1047 19.4991 76.1855 20.2266 76.1855H71.0254C70.5358 76.2135 70.0455 76.2754 69.5566 76.377L11.0898 88.5264C7.95819 89.1772 5.46793 90.9661 3.61426 93.4053C3.54097 93.2812 3.46607 93.157 3.39551 93.0303C1.60254 89.8093 0.704073 85.761 0.71875 81.7002C0.733492 77.6395 1.66086 73.6048 3.47656 70.4102C3.61823 70.1609 3.76763 69.9181 3.91992 69.6797ZM69.9785 52.0039C72.5651 51.4664 75.2194 52.0793 77.5713 53.7881L96.4004 67.4678C97.535 68.2921 98.5206 69.2721 99.3652 70.3682C97.2074 73.3093 94.2366 75.1855 90.6377 75.1855H20.2266C19.5729 75.1855 18.9193 75.1135 18.2725 74.9697L11.3877 73.4395C8.52692 72.8036 6.23479 71.1301 4.51562 68.8105C6.26132 66.4503 8.59532 64.7605 11.5117 64.1543L69.9785 52.0039ZM100.288 45.7412C103.073 50.2239 103.845 56.1868 102.893 61.626C102.379 64.5569 101.376 67.2763 99.958 69.5C99.1039 68.4367 98.1165 67.4789 96.9883 66.6592L78.1592 52.9785C76.3726 51.6805 74.4003 50.9523 72.3896 50.834H90.8564C94.8106 50.834 97.9933 48.8137 100.288 45.7412ZM3.80957 43.8867C5.65848 46.4496 8.18198 48.3506 11.3896 49.0635L18.2744 50.5938C18.9916 50.7531 19.7178 50.834 20.4453 50.834H71.2441C70.7544 50.862 70.2634 50.9228 69.7744 51.0244L11.3086 63.1748C8.22582 63.8154 5.76424 65.5585 3.91992 67.9395C3.73862 67.6561 3.5617 67.3669 3.39551 67.0684C1.60246 63.8475 0.704129 59.7991 0.71875 55.7383C0.733427 51.6773 1.66075 47.642 3.47656 44.4473C3.58449 44.2574 3.69548 44.0704 3.80957 43.8867ZM69.9785 26.041C72.5651 25.5035 75.2194 26.1165 77.5713 27.8252L96.4004 41.5049C97.6885 42.4408 98.7868 43.5757 99.7021 44.8555C97.5353 47.8894 94.5209 49.834 90.8564 49.834H20.4453C19.7916 49.834 19.138 49.7619 18.4912 49.6182L11.6064 48.0879C8.55994 47.4108 6.15971 45.5557 4.4082 42.998C6.16527 40.5599 8.53423 38.8103 11.5117 38.1914L69.9785 26.041ZM70.1973 0.689453C72.7838 0.151967 75.4381 0.763924 77.79 2.47266L96.6191 16.1533C102.499 20.4252 104.413 28.8408 103.111 36.2744C102.612 39.1259 101.65 41.7774 100.292 43.9668C99.3645 42.7307 98.2666 41.625 96.9883 40.6963L78.1592 27.0156C75.6011 25.1571 72.6623 24.4614 69.7744 25.0615L11.3086 37.2119C8.17698 37.8627 5.6857 39.6508 3.83203 42.0898C3.75896 41.9661 3.68462 41.8422 3.61426 41.7158C1.82125 38.4949 0.922823 34.4466 0.9375 30.3857C0.952225 26.325 1.87962 22.2904 3.69531 19.0957C5.50806 15.9064 8.19108 13.5745 11.7305 12.8389L70.1973 0.689453Z" stroke="url(#paint0_linear_34_85)"/>
<defs>
<linearGradient id="paint0_linear_34_85" x1="52" y1="0" x2="52" y2="127" gradientUnits="userSpaceOnUse">
<stop stop-color="#6BE8A6"/>
<stop offset="1" stop-color="#F8A33B"/>
</linearGradient>
</defs>
</svg>
