<svg width="947" height="1117" viewBox="0 0 947 1117" fill="none" xmlns="http://www.w3.org/2000/svg">
<path d="M360.594 962.462C429.205 1005.06 517.795 1005.06 586.406 962.462H687.914L653.444 1017.2C570.065 1149.6 376.935 1149.6 293.556 1017.2L259.086 962.462H360.594ZM584.496 962.462C516.863 1003.72 430.137 1003.72 362.504 962.462H584.496ZM937.74 688.892C976.894 819.352 880.507 961.462 733.546 961.462H689.725L768.323 836.651C851.902 823.362 914.577 762.885 937.74 688.892ZM9.25879 688.892C32.4223 762.885 95.0975 823.362 178.677 836.651L257.275 961.462H213.454C66.4928 961.462 -29.8949 819.352 9.25879 688.892ZM688.544 961.462H588.001C613.67 945.204 636.474 922.932 654.29 894.641L689.095 839.372H733.546C745.022 839.372 756.191 838.507 767.014 836.854L688.544 961.462ZM687.913 839.372L653.444 894.107C635.401 922.76 612.216 945.21 586.118 961.462H360.882C334.783 945.21 311.599 922.76 293.556 894.107L259.087 839.372H687.913ZM179.985 836.854C190.808 838.507 201.977 839.372 213.454 839.372H257.905L292.71 894.641C310.526 922.931 333.33 945.204 358.999 961.462H258.456L179.985 836.854ZM257.275 838.372H213.454C201.726 838.372 190.321 837.466 179.28 835.734L43.4521 620.045L81.6182 559.438L257.275 838.372ZM903.547 620.045L767.719 835.734C756.679 837.466 745.273 838.372 733.546 838.372H689.725L865.381 559.438L903.547 620.045ZM688.543 278.628L864.79 558.5L688.543 838.372H258.457L82.209 558.499L258.456 278.628H688.543ZM177.966 835.522C94.6853 821.928 32.3969 761.215 9.7793 687.187C15.1827 669.725 23.0245 652.483 33.5098 635.833L42.8604 620.982L177.966 835.522ZM913.49 635.834C923.975 652.484 931.816 669.725 937.22 687.187C914.602 761.215 852.314 821.928 769.033 835.522L904.139 620.983L913.49 635.834ZM11.0742 560.057C16.3535 575.253 23.5044 590.246 32.6631 604.789L42.2695 620.045L32.6631 635.301C22.4118 651.579 14.6759 668.42 9.26465 685.48C-2.53289 645.688 -2.88885 602.144 11.0742 560.057ZM935.925 560.057C949.888 602.145 949.532 645.688 937.734 685.48C932.323 668.42 924.588 651.579 914.337 635.301L904.729 620.045L914.337 604.79C923.496 590.246 930.646 575.253 935.925 560.057ZM81.0273 558.5L42.8604 619.106L33.5098 604.257C24.1461 589.388 16.8901 574.047 11.5967 558.499C16.8901 542.951 24.1464 527.612 33.5098 512.743L42.8604 497.893L81.0273 558.5ZM913.49 512.743C922.854 527.612 930.108 542.952 935.401 558.5C930.108 574.048 922.854 589.388 913.49 604.257L904.139 619.106L865.972 558.499L904.139 497.893L913.49 512.743ZM733.546 278.628C745.273 278.628 756.679 279.533 767.719 281.265L903.547 496.954L865.381 557.562L689.725 278.628H733.546ZM213.454 278.628H257.275L81.6182 557.561L43.4521 496.954L179.28 281.265C190.321 279.533 201.726 278.628 213.454 278.628ZM9.26465 431.519C14.6759 448.579 22.4116 465.42 32.6631 481.699L42.2695 496.954L32.6631 512.21C23.5045 526.753 16.3535 541.746 11.0742 556.942C-2.88872 514.855 -2.53303 471.311 9.26465 431.519ZM937.733 431.519C949.531 471.311 949.888 514.854 935.925 556.942C930.646 541.746 923.495 526.754 914.337 512.211L904.729 496.954L914.337 481.699C924.588 465.421 932.322 448.579 937.733 431.519ZM769.033 281.477C852.314 295.071 914.602 355.784 937.22 429.812C931.816 447.275 923.976 464.517 913.49 481.167L904.139 496.017L769.033 281.477ZM42.8604 496.016L33.5098 481.166C23.0244 464.516 15.1827 447.275 9.7793 429.812C32.3971 355.784 94.6855 295.071 177.966 281.477L42.8604 496.016ZM213.454 155.538H257.275L178.676 280.348C95.0972 293.637 32.4224 354.115 9.25879 428.107C-29.8944 297.648 66.493 155.538 213.454 155.538ZM733.546 155.538C880.507 155.538 976.893 297.648 937.74 428.107C914.576 354.114 851.902 293.636 768.322 280.348L689.725 155.538H733.546ZM358.999 155.538C333.33 171.796 310.526 194.068 292.71 222.359L257.905 277.628H213.454C201.978 277.628 190.808 278.492 179.985 280.145L258.456 155.538H358.999ZM688.544 155.538L767.014 280.145C756.191 278.492 745.022 277.628 733.546 277.628H689.095L654.29 222.359C636.474 194.069 613.67 171.796 588.001 155.538H688.544ZM586.118 155.538C612.216 171.79 635.401 194.24 653.444 222.893L687.913 277.628H259.086L293.556 222.892C311.599 194.239 334.784 171.789 360.882 155.538H586.118ZM293.556 99.8018C376.935 -32.6009 570.065 -32.6008 653.444 99.8018L687.914 154.538H586.405C517.793 111.943 429.204 111.942 360.593 154.538H259.086L293.556 99.8018ZM362.504 154.538C430.137 113.276 516.863 113.276 584.496 154.538H362.504Z" stroke="url(#paint0_linear_34_121)"/>
<defs>
<linearGradient id="paint0_linear_34_121" x1="0" y1="0" x2="1120.3" y2="983.614" gradientUnits="userSpaceOnUse">
<stop stop-color="#F8A33B"/>
<stop offset="1" stop-color="#6BE8A6"/>
</linearGradient>
</defs>
</svg>
