<svg width="814" height="1056" viewBox="0 0 814 1056" fill="none" xmlns="http://www.w3.org/2000/svg">
<path d="M527.999 610.004C548.969 649.671 556.557 697.237 544.508 746.466C512.932 875.474 608.786 977.562 717.465 988.217C683.813 1028.37 633.168 1055.5 569.477 1055.5H481.376L479.08 1055.49C416.794 1054.77 367.177 1028.01 333.977 988.608C444.513 980.405 543.508 877.275 511.492 746.466C499.443 697.237 507.029 649.67 527.999 610.004ZM464.571 587.751C451.125 629.931 423.04 668.222 380.306 694.151C266.6 763.142 262.336 903.396 331.947 987.741C281.774 990.946 229.363 974.46 185.963 931.943L184.329 930.327L153.312 899.311L122.033 868.03C77.2807 823.174 60.668 768.468 65.1045 716.504C149.066 788.865 291.991 785.941 361.849 670.806C387.022 629.316 423.847 601.634 464.571 587.751ZM585.985 585.985C628.862 599.206 667.861 627.475 694.151 670.806C764.009 785.941 906.932 788.864 990.894 716.504C995.332 768.489 978.706 823.218 933.913 868.084L871.671 930.327C826.634 975.364 771.638 991.99 719.451 987.395C788.764 903.013 784.356 763.047 670.806 694.151C627.475 667.861 599.206 628.862 585.985 585.985ZM507.132 578.379C514.813 587.882 521.623 598.11 527.433 608.936C506.111 648.929 498.35 696.978 510.521 746.703C542.444 877.132 443.447 979.902 333.182 987.66C263.439 903.81 267.446 763.797 380.824 695.006C424.01 668.803 452.32 630.031 465.748 587.354C479.219 582.857 493.106 579.866 507.132 578.379ZM548.867 578.379C561.019 579.667 573.066 582.084 584.829 585.631C598.033 628.987 626.52 668.451 670.287 695.006C783.496 763.695 787.658 903.39 718.24 987.282C609.834 977.047 513.998 875.324 545.479 746.703C557.649 696.978 549.888 648.929 528.566 608.936C534.376 598.11 541.186 587.882 548.867 578.379ZM442.012 525.95C452.983 531.43 463.38 537.924 473.077 545.304C471.852 559.263 469.142 573.108 464.946 586.567C423.732 600.444 386.438 628.352 360.994 670.287C291.34 785.087 148.669 787.755 65.2139 715.272C75.1891 606.666 177.026 510.495 305.84 542.022C354.905 554.031 402.338 546.633 442.012 525.95ZM613.987 525.95C653.661 546.633 701.094 554.032 750.16 542.022C878.974 510.495 980.81 606.666 990.785 715.272C907.33 787.755 764.659 785.087 695.006 670.287C668.451 626.52 628.987 598.033 585.631 584.829C582.084 573.066 579.667 561.019 578.379 548.867C589.348 540.001 601.283 532.296 613.987 525.95ZM67.3906 333.977C75.5935 444.513 178.725 543.508 309.534 511.492C356.672 499.955 402.285 506.42 440.898 525.399C401.564 545.717 354.63 552.934 306.077 541.051C176.891 509.432 74.7009 605.593 64.2832 714.457C26.5699 681.273 1.17918 632.607 0.513672 571.925L0.5 569.628V481.635C0.500008 418.151 27.4555 367.629 67.3906 333.977ZM988.607 333.977C1028.02 367.19 1054.79 416.834 1055.49 479.155L1055.5 481.452V569.477C1055.5 631.299 1029.94 680.828 991.716 714.457C981.298 605.594 879.109 509.432 749.923 541.051C701.37 552.934 654.435 545.717 615.101 525.399C653.714 506.42 699.328 499.955 746.466 511.492C877.275 543.508 980.404 444.513 988.607 333.977ZM508.318 578.255C521.401 576.947 534.598 576.948 547.681 578.256C540.265 587.492 533.668 597.405 528.002 607.877L528 607.873L527.997 607.878C522.331 597.405 515.734 587.492 508.318 578.255ZM474.017 546.021C485.965 555.226 496.833 565.784 506.381 577.452C492.741 578.944 479.236 581.853 466.118 586.178L466.12 586.173L466.113 586.175C470.147 573.066 472.781 559.599 474.017 546.021ZM577.452 549.618C578.74 561.393 581.085 573.068 584.483 584.479L584.479 584.479L584.479 584.483C573.068 581.085 561.393 578.74 549.618 577.452C557.945 567.276 567.276 557.945 577.452 549.618ZM550.552 473.554C558.744 483.857 567.948 493.329 578.007 501.812C575.953 517.267 575.726 532.931 577.327 548.432C566.733 557.042 557.042 566.733 548.432 577.327C534.852 575.925 521.147 575.925 507.567 577.327C497.739 565.234 486.503 554.319 474.122 544.843C475.236 531.732 475.048 518.525 473.555 505.447C485.355 496.065 496.065 485.355 505.447 473.555C520.426 475.264 535.573 475.263 550.552 473.554ZM578.914 502.57C589.389 511.298 600.774 518.958 612.896 525.375L612.891 525.378L612.896 525.38C600.562 531.598 588.955 539.091 578.255 547.681C576.756 532.679 576.975 517.528 578.914 502.57ZM472.628 506.177C474.026 518.777 474.21 531.493 473.178 544.123C463.766 537.009 453.703 530.724 443.104 525.38L443.109 525.378L443.104 525.375C453.526 519.858 463.405 513.421 472.628 506.177ZM68.3379 333.184C152.188 263.439 292.202 267.445 360.994 380.824C386.065 422.145 422.642 449.846 463.139 463.925C467.746 477.286 470.864 491.072 472.494 505.009C462.993 512.52 452.787 519.168 442.001 524.827C403.045 505.497 356.94 498.86 309.297 510.521C178.869 542.443 76.0975 443.448 68.3379 333.184ZM695.006 380.824C763.798 267.445 903.81 263.44 987.66 333.183C979.901 443.447 877.131 542.443 746.703 510.521C699.059 498.86 652.954 505.496 613.998 524.827C601.514 518.277 589.808 510.403 579.071 501.399C580.71 489.324 583.471 477.381 587.354 465.748C630.032 452.32 668.803 424.01 695.006 380.824ZM464.341 464.337C477.341 468.762 490.736 471.788 504.276 473.415C495.163 484.803 484.803 495.163 473.415 504.276C471.788 490.736 468.762 477.341 464.337 464.341L464.344 464.344L464.341 464.337ZM586.173 466.12L586.178 466.118C582.461 477.391 579.789 488.95 578.165 500.635C568.504 492.434 559.642 483.313 551.722 473.415C563.366 472.016 574.903 469.582 586.175 466.113L586.173 466.12ZM528.002 437.97C534.066 450.292 541.398 461.903 549.822 472.628C535.325 474.237 520.674 474.237 506.177 472.628C514.601 461.903 521.933 450.292 527.997 437.97L528 437.977L528.002 437.97ZM715.272 65.2139C787.755 148.669 785.087 291.34 670.287 360.994C628.352 386.438 600.443 423.732 586.566 464.946C574.937 468.572 563.02 471.088 550.99 472.495C542.288 461.487 534.745 449.534 528.556 436.828C547.236 398.238 553.513 352.786 542.022 305.84C510.495 177.026 606.666 75.189 715.272 65.2139ZM336.155 64.8486C446.614 72.3403 545.947 175.221 513.978 305.84C502.487 352.786 508.763 398.238 527.443 436.828C521.254 449.534 513.71 461.486 505.009 472.494C491.072 470.864 477.286 467.746 463.925 463.139C449.846 422.642 422.145 386.065 380.824 360.994C265.857 291.239 263.348 148.253 336.155 64.8486ZM716.505 65.1055C767.91 60.717 821.999 76.9263 866.58 120.6L868.214 122.216L930.327 184.329C930.383 184.385 930.438 184.441 930.494 184.497C974.085 228.18 990.983 281.208 987.742 331.947C903.398 262.336 763.142 266.599 694.151 380.306C668.222 423.04 629.931 451.125 587.751 464.571C601.634 423.847 629.316 387.022 670.806 361.849C785.941 291.991 788.865 149.067 716.505 65.1055ZM187.786 122.216C231.356 78.6461 284.247 61.667 334.897 64.7676C262.238 148.683 265.016 291.898 380.306 361.849C421.164 386.639 448.63 422.73 462.716 462.716C422.73 448.63 386.639 421.164 361.849 380.306C292.858 266.599 152.601 262.335 68.2568 331.947C65.0545 281.815 81.5128 229.45 123.951 186.07L125.565 184.437L187.786 122.216ZM481.635 0.5H569.713C631.425 0.565218 680.871 26.1128 714.457 64.2832C605.593 74.7008 509.432 176.891 541.051 306.077C552.413 352.498 546.314 397.44 528 435.674C509.686 397.44 503.587 352.498 514.949 306.077C547.008 175.092 447.704 71.8599 336.988 63.9014C370.611 25.8931 420.018 0.500015 481.635 0.5Z" stroke="url(#paint0_linear_34_134)"/>
<defs>
<linearGradient id="paint0_linear_34_134" x1="528" y1="0" x2="528" y2="1056" gradientUnits="userSpaceOnUse">
<stop stop-color="#526DEA"/>
<stop offset="1" stop-color="#F8A33B"/>
</linearGradient>
</defs>
</svg>
