<svg width="210" height="210" viewBox="0 0 210 210" fill="none" xmlns="http://www.w3.org/2000/svg">
<path d="M80.5508 185.761C80.5508 188.287 80.888 190.649 81.5068 192.83L74.3477 180.056L80.5508 178.309V185.761ZM52.1475 148.671C55.9951 150.828 59.1725 154.005 61.3291 157.853L70.1963 173.672L64.8281 179.041C62.318 181.551 59.5625 183.344 56.7061 184.505L54.3857 185.159C51.5882 185.947 48.8825 186.235 46.3145 186.104C40.5339 185.651 35.0214 183.078 30.9053 179.041C26.8967 174.928 24.3433 169.434 23.8955 163.675C23.7653 161.11 24.054 158.408 24.8408 155.614L25.4941 153.293C26.6555 150.437 28.449 147.682 30.959 145.172L36.3271 139.803L52.1475 148.671ZM179.041 145.172C181.551 147.682 183.344 150.437 184.505 153.293L185.159 155.614C185.946 158.408 186.235 161.11 186.104 163.675C185.656 169.444 183.093 174.947 179.072 179.062C174.958 183.087 169.455 185.652 163.685 186.104C161.117 186.235 158.411 185.947 155.614 185.159L153.293 184.505C150.437 183.344 147.682 181.551 145.172 179.041L139.803 173.672L148.671 157.853C150.828 154.005 154.005 150.828 157.853 148.671L173.672 139.803L179.041 145.172ZM73.6016 179.747L59.5068 183.716C61.4865 182.611 63.3952 181.181 65.1816 179.395L70.4502 174.125L73.6016 179.747ZM144.818 179.395C146.605 181.181 148.513 182.611 150.492 183.716L136.397 179.747L139.549 174.125L144.818 179.395ZM80.5508 177.79L74.0957 179.607L70.8174 173.758L80.5508 164.025V177.79ZM139.182 173.758L135.903 179.607L129.449 177.79V164.025L139.182 173.758ZM128.949 163.525V177.649L111.628 172.771C107.294 171.551 102.706 171.551 98.3721 172.771L81.0508 177.649V163.525L105 139.576L128.949 163.525ZM80.5508 129.449V163.318L70.5635 173.305L61.7656 157.608C59.564 153.68 56.3195 150.436 52.3916 148.234L36.6943 139.436L46.6816 129.449H80.5508ZM163.318 129.449L173.305 139.436L157.608 148.234C153.68 150.436 150.436 153.68 148.234 157.608L139.436 173.305L129.449 163.318V129.449H163.318ZM94.873 129.449L104.646 139.223L81.0508 162.818V129.449H94.873ZM128.949 129.449V162.818L105.354 139.223L115.127 129.449H128.949ZM35.874 139.549L30.6055 144.818C28.8191 146.605 27.3879 148.513 26.2832 150.492L30.252 136.397L35.874 139.549ZM183.716 150.491C182.611 148.512 181.181 146.604 179.395 144.818L174.125 139.549L179.747 136.398L183.716 150.491ZM45.9746 129.449L36.2412 139.182L30.3916 135.903L32.21 129.449H45.9746ZM177.79 129.449L179.607 135.903L173.758 139.182L164.025 129.449H177.79ZM114.42 129.449L105 138.869L95.5801 129.449H114.42ZM17.1689 128.492C19.3505 129.111 21.7121 129.449 24.2393 129.449H31.6904L29.9434 135.651L17.1689 128.492ZM180.056 135.651L178.31 129.449H185.761C188.288 129.449 190.649 129.111 192.83 128.492L180.056 135.651ZM24.2393 81.0508H31.8311L36.748 98.5078C37.9437 102.753 37.9437 107.247 36.748 111.492L31.8311 128.949H24.2393C20.6884 128.949 17.4715 128.269 14.6299 127.069L12.5293 125.892C9.99194 124.469 7.87308 122.759 6.14941 120.848C2.39083 116.449 0.315105 110.745 0.251953 104.992C0.318686 99.2448 2.39394 93.5463 6.14941 89.1514C7.87299 87.2407 9.99218 85.5305 12.5293 84.1084L14.6299 82.9297C17.4714 81.7305 20.6885 81.0508 24.2393 81.0508ZM185.761 81.0508C189.311 81.0508 192.528 81.7307 195.369 82.9297L197.471 84.1084C200.008 85.5304 202.126 87.2409 203.85 89.1514C207.605 93.5463 209.681 99.2446 209.748 104.992C209.685 110.745 207.608 116.449 203.85 120.848C202.126 122.758 200.008 124.47 197.471 125.892L195.369 127.069C192.528 128.268 189.311 128.949 185.761 128.949H178.169L173.252 111.492C172.056 107.247 172.056 102.753 173.252 98.5078L178.169 81.0508H185.761ZM177.649 81.0508L172.771 98.3721C171.55 102.706 171.55 107.294 172.771 111.628L177.649 128.949H163.525L139.576 105L163.525 81.0508H177.649ZM162.818 128.949H129.449V115.127L139.223 105.354L162.818 128.949ZM128.949 128.949H115.627L128.949 115.627V128.949ZM114.92 128.949H109.941C110.613 128.811 111.274 128.644 111.924 128.452C111.953 128.444 111.982 128.435 112.012 128.426C112.169 128.379 112.325 128.331 112.48 128.281C112.51 128.272 112.54 128.262 112.57 128.252C112.902 128.144 113.231 128.03 113.557 127.908C113.641 127.877 113.726 127.844 113.811 127.812C113.893 127.78 113.975 127.747 114.057 127.715C114.173 127.669 114.289 127.62 114.404 127.572C114.469 127.545 114.535 127.518 114.6 127.49C114.726 127.436 114.852 127.381 114.978 127.325C115.022 127.305 115.066 127.286 115.11 127.266C115.261 127.197 115.41 127.127 115.56 127.056C115.582 127.045 115.605 127.034 115.628 127.023C115.789 126.946 115.95 126.866 116.11 126.784C116.126 126.776 116.142 126.769 116.157 126.761C116.936 126.361 117.698 125.918 118.438 125.43L114.92 128.949ZM91.5605 125.43C92.3016 125.918 93.064 126.361 93.8428 126.761C93.8581 126.769 93.8734 126.776 93.8887 126.784C94.0488 126.866 94.2096 126.945 94.3711 127.023C94.3938 127.034 94.4167 127.045 94.4395 127.056C94.5887 127.127 94.7383 127.197 94.8887 127.266C94.9328 127.286 94.9772 127.305 95.0215 127.325C95.1471 127.381 95.2731 127.436 95.3994 127.49C95.4643 127.518 95.5295 127.545 95.5947 127.572C95.7104 127.62 95.8261 127.669 95.9424 127.715C96.0242 127.747 96.1062 127.78 96.1885 127.812C96.273 127.844 96.3576 127.877 96.4424 127.908C96.7679 128.03 97.0968 128.144 97.4287 128.252C97.4587 128.262 97.4886 128.272 97.5186 128.281C97.6741 128.331 97.8304 128.379 97.9873 128.426C98.0166 128.435 98.0459 128.444 98.0752 128.452C98.7257 128.644 99.3868 128.811 100.059 128.949H95.0801L91.5605 125.43ZM94.373 128.949H81.0508V115.627L94.373 128.949ZM80.5508 115.127V128.949H47.1816L70.7773 105.354L80.5508 115.127ZM46.4746 81.0508L70.4238 105L46.4746 128.949H32.3506L37.2285 111.628C38.4492 107.294 38.4492 102.706 37.2285 98.3721L32.3506 81.0508H46.4746ZM105 81.0508C105.288 81.0508 105.575 81.0573 105.86 81.0674C105.967 81.0712 106.074 81.0748 106.181 81.0801C106.279 81.0849 106.378 81.0917 106.477 81.0977C106.577 81.1038 106.678 81.1088 106.778 81.1162C106.879 81.1236 106.979 81.133 107.079 81.1416C107.171 81.1496 107.263 81.157 107.355 81.166C107.485 81.1787 107.614 81.1933 107.743 81.208C109.526 81.4123 111.289 81.8169 112.998 82.4209C113.125 82.4659 113.252 82.5115 113.378 82.5586C113.452 82.5862 113.526 82.6142 113.6 82.6426C113.71 82.6849 113.819 82.7276 113.929 82.7715C113.996 82.7983 114.062 82.826 114.129 82.8535C114.23 82.8953 114.331 82.9374 114.432 82.9805C114.525 83.0204 114.618 83.0613 114.711 83.1025C114.798 83.1414 114.886 83.1799 114.973 83.2197C115.064 83.2615 115.154 83.3047 115.245 83.3477C115.312 83.3792 115.378 83.4103 115.444 83.4424C115.574 83.5051 115.703 83.5696 115.831 83.6348C117.078 84.2681 118.262 85.0074 119.371 85.8408C119.504 85.9408 119.636 86.0424 119.768 86.1455C119.789 86.1624 119.811 86.1793 119.832 86.1963C119.956 86.2941 120.079 86.3926 120.201 86.4932C120.23 86.5168 120.258 86.5407 120.287 86.5645C120.408 86.6645 120.528 86.7654 120.646 86.8682C120.692 86.9074 120.736 86.9478 120.781 86.9873C120.885 87.0787 120.99 87.1701 121.093 87.2637C121.102 87.272 121.111 87.2807 121.12 87.2891C121.25 87.407 121.378 87.5261 121.506 87.6475C122.075 88.1889 122.617 88.7579 123.131 89.3525C123.217 89.4519 123.301 89.5528 123.385 89.6533C123.425 89.7015 123.466 89.7493 123.506 89.7979C123.606 89.92 123.705 90.0434 123.803 90.167C124.77 91.3915 125.621 92.7122 126.337 94.1133C126.409 94.2537 126.479 94.3946 126.548 94.5361C126.575 94.5923 126.602 94.6487 126.629 94.7051C126.68 94.8119 126.73 94.9189 126.779 95.0264C126.819 95.1132 126.858 95.2007 126.896 95.2881C126.937 95.3798 126.978 95.4713 127.018 95.5635C127.061 95.6652 127.103 95.7677 127.146 95.8701C127.173 95.9368 127.201 96.0034 127.228 96.0703C127.265 96.1644 127.302 96.2589 127.339 96.3535C127.373 96.4426 127.407 96.5317 127.44 96.6211C127.486 96.7421 127.53 96.8635 127.573 96.9854C128.173 98.677 128.577 100.422 128.784 102.187C128.801 102.334 128.817 102.482 128.832 102.631C128.842 102.727 128.849 102.824 128.857 102.92C128.866 103.02 128.875 103.12 128.883 103.221C128.89 103.322 128.896 103.423 128.902 103.523C128.908 103.622 128.914 103.72 128.919 103.818C128.923 103.895 128.926 103.971 128.929 104.047C128.933 104.167 128.938 104.287 128.941 104.407C128.942 104.413 128.942 104.42 128.942 104.426L128.949 105C128.949 105.274 128.943 105.547 128.934 105.819C128.929 105.94 128.925 106.06 128.919 106.181C128.915 106.26 128.911 106.339 128.906 106.418C128.9 106.532 128.893 106.645 128.885 106.759C128.881 106.815 128.876 106.871 128.871 106.927C128.86 107.07 128.847 107.213 128.833 107.355C128.82 107.485 128.806 107.614 128.791 107.743C128.609 109.334 128.268 110.909 127.768 112.444C127.724 112.577 127.68 112.71 127.634 112.842C127.616 112.894 127.597 112.946 127.578 112.998C127.537 113.115 127.495 113.232 127.452 113.349C127.421 113.433 127.389 113.516 127.356 113.6C127.316 113.706 127.275 113.812 127.232 113.917C127.204 113.988 127.175 114.058 127.146 114.129C127.104 114.229 127.063 114.328 127.021 114.427C126.983 114.513 126.946 114.6 126.908 114.687C126.869 114.775 126.829 114.863 126.789 114.95C126.739 115.059 126.689 115.167 126.638 115.275C126.611 115.332 126.584 115.388 126.557 115.444C126.493 115.575 126.429 115.705 126.363 115.835C125.73 117.081 124.991 118.263 124.158 119.371C124.058 119.504 123.957 119.636 123.854 119.768C123.332 120.432 122.777 121.068 122.189 121.674C122.105 121.761 122.021 121.848 121.935 121.935C121.52 122.349 121.09 122.748 120.646 123.131C120.546 123.218 120.444 123.304 120.342 123.39C118.97 124.535 117.469 125.53 115.862 126.349C115.723 126.419 115.584 126.489 115.444 126.557C115.388 126.584 115.332 126.611 115.275 126.638C115.167 126.689 115.059 126.739 114.95 126.789C114.879 126.822 114.807 126.854 114.735 126.886C114.633 126.931 114.53 126.976 114.427 127.021C114.328 127.063 114.229 127.104 114.129 127.146C114.062 127.173 113.996 127.201 113.929 127.228C113.819 127.271 113.71 127.314 113.6 127.356C113.526 127.385 113.452 127.413 113.378 127.44C113.252 127.488 113.125 127.533 112.998 127.578C111.289 128.182 109.526 128.587 107.743 128.791C107.614 128.806 107.485 128.82 107.355 128.833C107.263 128.842 107.171 128.849 107.079 128.857C106.979 128.866 106.879 128.875 106.778 128.883C106.678 128.89 106.577 128.896 106.477 128.902C106.378 128.908 106.279 128.914 106.181 128.919C106.074 128.924 105.967 128.928 105.86 128.932C105.771 128.935 105.681 128.939 105.592 128.941C105.395 128.946 105.197 128.949 105 128.949C104.712 128.949 104.425 128.942 104.139 128.932C104.032 128.928 103.925 128.924 103.818 128.919C103.72 128.914 103.622 128.908 103.523 128.902C103.423 128.896 103.322 128.89 103.221 128.883C103.12 128.875 103.02 128.866 102.92 128.857C102.828 128.849 102.736 128.842 102.644 128.833C102.514 128.82 102.385 128.806 102.256 128.791C100.473 128.587 98.71 128.182 97.001 127.578C96.8739 127.533 96.7472 127.488 96.6211 127.44C96.5471 127.413 96.4732 127.385 96.3994 127.356C96.2894 127.314 96.1796 127.271 96.0703 127.228C96.0034 127.201 95.9368 127.173 95.8701 127.146C95.7689 127.104 95.6679 127.062 95.5674 127.019C95.474 126.979 95.381 126.938 95.2881 126.896C95.2007 126.858 95.1132 126.819 95.0264 126.779C94.928 126.734 94.8303 126.688 94.7324 126.642C94.6731 126.613 94.6137 126.585 94.5547 126.557C94.4148 126.489 94.2756 126.419 94.1367 126.349C92.5307 125.53 91.0295 124.535 89.6582 123.39C89.556 123.304 89.4537 123.218 89.3525 123.131C88.1782 122.116 87.104 120.99 86.1455 119.768C86.0424 119.636 85.9408 119.504 85.8408 119.371C85.0083 118.263 84.2696 117.08 83.6367 115.835C83.5708 115.705 83.5057 115.575 83.4424 115.444C83.4151 115.388 83.3882 115.332 83.3613 115.275C83.31 115.167 83.2596 115.059 83.21 114.95C83.1699 114.863 83.1308 114.775 83.0918 114.687C83.0536 114.6 83.0156 114.514 82.9785 114.427C82.9361 114.328 82.8946 114.229 82.8535 114.129C82.8245 114.058 82.7959 113.988 82.7676 113.917C82.7252 113.812 82.6835 113.706 82.6426 113.6C82.6105 113.516 82.579 113.432 82.5479 113.349C82.5045 113.232 82.4624 113.115 82.4209 112.998C82.4025 112.946 82.3842 112.894 82.3662 112.842C82.3205 112.71 82.2759 112.577 82.2324 112.444C81.7318 110.909 81.3903 109.334 81.208 107.743C81.1933 107.614 81.1787 107.485 81.166 107.355C81.152 107.213 81.1404 107.07 81.1289 106.927C81.1245 106.871 81.1193 106.815 81.1152 106.759C81.1069 106.645 81.1004 106.532 81.0938 106.418C81.0891 106.339 81.0839 106.26 81.0801 106.181C81.0742 106.06 81.0705 105.94 81.0664 105.819C81.0639 105.744 81.0595 105.668 81.0576 105.592C81.0479 105.197 81.0479 104.802 81.0576 104.407C81.0605 104.287 81.0666 104.167 81.0713 104.047C81.0743 103.971 81.0763 103.895 81.0801 103.818C81.0849 103.72 81.0917 103.622 81.0977 103.523C81.1039 103.423 81.1087 103.322 81.1162 103.221C81.1236 103.12 81.133 103.02 81.1416 102.92C81.15 102.824 81.1585 102.727 81.168 102.631C81.1826 102.482 81.1985 102.334 81.2158 102.187C81.4007 100.615 81.7413 99.0575 82.2373 97.54C82.2854 97.3932 82.3349 97.2471 82.3857 97.1016C82.3993 97.0628 82.413 97.0241 82.4268 96.9854C82.47 96.8636 82.5134 96.742 82.5586 96.6211C82.5919 96.5316 82.6267 96.4427 82.6611 96.3535C82.6977 96.259 82.7337 96.1643 82.7715 96.0703C82.7983 96.0034 82.826 95.9368 82.8535 95.8701C82.8958 95.7676 82.9387 95.6653 82.9824 95.5635C83.0218 95.4715 83.0619 95.3797 83.1025 95.2881C83.1414 95.2007 83.1799 95.1132 83.2197 95.0264C83.269 94.9188 83.3202 94.8121 83.3711 94.7051C83.398 94.6487 83.4248 94.5923 83.4521 94.5361C83.5209 94.3946 83.5914 94.2537 83.6631 94.1133C84.47 92.5349 85.4465 91.0576 86.5693 89.7061C86.6678 89.5876 86.767 89.4695 86.8682 89.3525C87.1593 89.0155 87.4613 88.6884 87.7705 88.3682L88.0654 88.0654C88.3321 87.7988 88.6041 87.5405 88.8799 87.2891C88.8889 87.2809 88.8972 87.2719 88.9062 87.2637C89.0093 87.17 89.1144 87.0789 89.2188 86.9873C89.2636 86.9479 89.3073 86.9072 89.3525 86.8682C89.4716 86.7652 89.5923 86.6647 89.7129 86.5645C91.0786 85.4307 92.5721 84.4459 94.1689 83.6348C94.2972 83.5697 94.4255 83.505 94.5547 83.4424C94.6211 83.4102 94.6881 83.3793 94.7549 83.3477C94.8528 83.3013 94.9505 83.2549 95.0488 83.21C95.1202 83.1773 95.1919 83.1453 95.2637 83.1133C95.3663 83.0676 95.4691 83.0226 95.5723 82.9785C95.6712 82.9361 95.7705 82.8946 95.8701 82.8535C95.9368 82.826 96.0034 82.7983 96.0703 82.7715C96.1796 82.7276 96.2894 82.6849 96.3994 82.6426C96.4732 82.6142 96.5471 82.5862 96.6211 82.5586C96.7472 82.5115 96.8739 82.4659 97.001 82.4209C97.045 82.4054 97.0888 82.3893 97.1328 82.374C97.2679 82.327 97.4038 82.2819 97.54 82.2373C99.0798 81.7341 100.66 81.391 102.256 81.208C102.385 81.1933 102.514 81.1787 102.644 81.166C102.736 81.157 102.828 81.1496 102.92 81.1416C103.02 81.133 103.12 81.1236 103.221 81.1162C103.322 81.1087 103.423 81.1039 103.523 81.0977C103.622 81.0917 103.72 81.0849 103.818 81.0801C103.925 81.0748 104.032 81.0712 104.139 81.0674C104.228 81.0642 104.318 81.0598 104.407 81.0576C104.605 81.0528 104.802 81.0508 105 81.0508ZM81.0508 109.94C81.1884 110.611 81.3547 111.271 81.5459 111.92C81.5527 111.943 81.5595 111.966 81.5664 111.989C81.6118 112.142 81.6588 112.293 81.707 112.444C81.7204 112.486 81.7335 112.528 81.7471 112.57C81.8514 112.891 81.962 113.209 82.0791 113.523C82.1111 113.61 82.1438 113.695 82.1768 113.781C82.2064 113.858 82.2362 113.935 82.2666 114.012C82.3077 114.116 82.35 114.219 82.3926 114.322C82.4372 114.43 82.4813 114.538 82.5273 114.646C82.5623 114.727 82.5989 114.808 82.6348 114.889C82.6636 114.954 82.6923 115.019 82.7217 115.084C82.7937 115.243 82.8677 115.402 82.9434 115.56C82.9519 115.577 82.9601 115.595 82.9688 115.613C83.4352 116.582 83.9678 117.526 84.5693 118.438L81.0508 114.92V109.94ZM128.949 114.92L125.43 118.438C126.031 117.526 126.565 116.582 127.031 115.613C127.04 115.596 127.047 115.577 127.056 115.56C127.131 115.402 127.206 115.243 127.278 115.084C127.308 115.019 127.336 114.954 127.365 114.889C127.401 114.808 127.437 114.727 127.472 114.646C127.518 114.538 127.563 114.43 127.607 114.322C127.65 114.219 127.692 114.116 127.733 114.012C127.764 113.935 127.794 113.858 127.823 113.781C127.856 113.695 127.889 113.61 127.921 113.523C128.038 113.209 128.148 112.891 128.252 112.57C128.266 112.528 128.28 112.486 128.293 112.444C128.341 112.293 128.388 112.142 128.434 111.989C128.44 111.968 128.446 111.946 128.452 111.924C128.644 111.273 128.811 110.612 128.949 109.94V114.92ZM80.5508 114.42L71.1309 105L80.5508 95.5801V114.42ZM138.869 105L129.449 114.42V95.5801L138.869 105ZM80.5508 81.0508V94.873L70.7773 104.646L47.1816 81.0508H80.5508ZM162.818 81.0508L139.223 104.646L129.449 94.873V81.0508H162.818ZM84.5693 91.5605C84.2968 91.9739 84.0397 92.3947 83.7949 92.8203C83.7911 92.8269 83.787 92.8333 83.7832 92.8398C83.4947 93.3426 83.2255 93.8533 82.9756 94.3711C82.9649 94.3931 82.9549 94.4154 82.9443 94.4375C82.8726 94.5874 82.802 94.7376 82.7334 94.8887C82.7221 94.9136 82.7115 94.9389 82.7002 94.9639C82.6479 95.0801 82.5963 95.1966 82.5459 95.3135C82.4995 95.4208 82.454 95.5286 82.4092 95.6367C82.3685 95.735 82.3274 95.833 82.2881 95.9316C82.2644 95.991 82.242 96.0508 82.2188 96.1104C82.1757 96.2209 82.1322 96.3313 82.0908 96.4424C81.9692 96.7679 81.8551 97.0968 81.7471 97.4287C81.7418 97.445 81.7367 97.4613 81.7314 97.4775C81.6822 97.6301 81.6352 97.7836 81.5889 97.9375C81.5782 97.973 81.5672 98.0084 81.5566 98.0439C81.361 98.7044 81.1909 99.3761 81.0508 100.059V95.0801L84.5693 91.5605ZM128.949 95.0801V100.059C128.809 99.3761 128.639 98.7044 128.443 98.0439C128.433 98.0084 128.422 97.973 128.411 97.9375C128.365 97.7836 128.318 97.6301 128.269 97.4775C128.263 97.4612 128.257 97.4451 128.252 97.4287C128.144 97.0968 128.03 96.7679 127.908 96.4424C127.867 96.3314 127.824 96.2208 127.781 96.1104C127.758 96.0507 127.735 95.9911 127.711 95.9316C127.672 95.8331 127.631 95.7349 127.591 95.6367C127.546 95.5286 127.5 95.4208 127.454 95.3135C127.404 95.1966 127.352 95.0801 127.3 94.9639C127.288 94.9388 127.277 94.9137 127.266 94.8887C127.197 94.7378 127.127 94.5873 127.056 94.4375C127.045 94.4153 127.034 94.3932 127.023 94.3711C126.559 93.408 126.028 92.4684 125.43 91.5605L128.949 95.0801ZM94.373 81.0508L81.0508 94.373V81.0508H94.373ZM128.949 81.0508V94.373L115.627 81.0508H128.949ZM100.059 81.0508C99.3869 81.1886 98.7256 81.3551 98.0752 81.5469C98.0459 81.5555 98.0166 81.5645 97.9873 81.5732C97.4649 81.7294 96.9495 81.9013 96.4424 82.0908C96.3576 82.1224 96.273 82.1549 96.1885 82.1875C96.1027 82.2207 96.017 82.254 95.9316 82.2881C95.838 82.3254 95.7447 82.3638 95.6514 82.4023C95.5518 82.4436 95.4524 82.4848 95.3535 82.5273C95.2531 82.5704 95.1536 82.6157 95.0537 82.6602C94.9987 82.6847 94.9434 82.7085 94.8887 82.7334C94.7461 82.7981 94.6044 82.865 94.4629 82.9326C94.4324 82.9472 94.4015 82.9609 94.3711 82.9756C94.2096 83.0535 94.0488 83.1332 93.8887 83.2148C93.8773 83.2207 93.8659 83.2266 93.8545 83.2324C93.0717 83.6335 92.3053 84.0783 91.5605 84.5693L95.0801 81.0508H100.059ZM114.92 81.0508L118.438 84.5693C118.025 84.2968 117.604 84.0397 117.179 83.7949C117.172 83.7911 117.166 83.787 117.159 83.7832C116.824 83.5911 116.486 83.4074 116.145 83.2324C116.133 83.2266 116.122 83.2207 116.11 83.2148C115.95 83.1332 115.789 83.0535 115.628 82.9756C115.598 82.961 115.567 82.9471 115.537 82.9326C115.395 82.8649 115.253 82.7982 115.11 82.7334C115.056 82.7086 115.001 82.6846 114.946 82.6602C114.846 82.6156 114.746 82.5705 114.646 82.5273C114.547 82.4849 114.447 82.4436 114.348 82.4023C114.254 82.3638 114.161 82.3254 114.067 82.2881C113.982 82.254 113.896 82.2207 113.811 82.1875C113.726 82.1549 113.641 82.1224 113.557 82.0908C113.231 81.9692 112.902 81.855 112.57 81.7471C112.54 81.7373 112.51 81.7274 112.48 81.7178C112.325 81.6678 112.169 81.6201 112.012 81.5732C111.982 81.5645 111.953 81.5555 111.924 81.5469C111.274 81.3553 110.613 81.1886 109.941 81.0508H114.92ZM31.6904 80.5508H24.2393C21.7122 80.5508 19.3504 80.8879 17.1689 81.5068L29.9434 74.3477L31.6904 80.5508ZM192.83 81.5068C190.649 80.888 188.287 80.5508 185.761 80.5508H178.31L180.056 74.3477L192.83 81.5068ZM114.42 80.5508H95.5801L105 71.1309L114.42 80.5508ZM179.607 74.0957L177.79 80.5508H164.025L173.758 70.8174L179.607 74.0957ZM148.234 52.3916C150.436 56.3195 153.68 59.564 157.608 61.7656L173.305 70.5635L163.318 80.5508H129.449V46.6816L139.436 36.6943L148.234 52.3916ZM128.949 80.5508H115.127L105.354 70.7773L128.949 47.1816V80.5508ZM104.646 70.7773L94.873 80.5508H81.0508V47.1816L104.646 70.7773ZM80.5508 46.6816V80.5508H46.6816L36.6943 70.5635L52.3916 61.7656C56.3195 59.564 59.564 56.3195 61.7656 52.3916L70.5635 36.6943L80.5508 46.6816ZM45.9746 80.5508H32.21L30.3916 74.0957L36.2412 70.8174L45.9746 80.5508ZM26.2832 59.5068C27.388 61.4867 28.8188 63.395 30.6055 65.1816L35.874 70.4502L30.252 73.6016L26.2832 59.5068ZM179.747 73.6006L174.125 70.4502L179.395 65.1816C181.181 63.3954 182.611 61.4873 183.716 59.5078L179.747 73.6006ZM128.949 46.4746L105 70.4238L81.0508 46.4746V32.3506L98.3721 37.2295C102.706 38.4501 107.294 38.4501 111.628 37.2295L128.949 32.3506V46.4746ZM46.3145 23.8955C48.8825 23.7639 51.5882 24.053 54.3857 24.8408L56.7061 25.4941C59.5627 26.6555 62.3179 28.4487 64.8281 30.959L70.1963 36.3271L61.3291 52.1475C59.1725 55.9951 55.9951 59.1725 52.1475 61.3291L36.3271 70.1963L30.959 64.8281C28.4487 62.3178 26.6555 59.5627 25.4941 56.7061L24.8408 54.3857C24.0525 51.5865 23.7643 48.8791 23.8965 46.3096C24.3489 40.5412 26.9136 35.0393 30.9365 30.9268C35.0492 26.9082 40.5489 24.3464 46.3145 23.8955ZM155.614 24.8408C158.411 24.0531 161.117 23.7641 163.685 23.8955C169.465 24.3474 174.978 26.9218 179.094 30.958C183.099 35.0672 185.652 40.5557 186.104 46.3096C186.236 48.8791 185.948 51.5865 185.159 54.3857L184.505 56.7061C183.344 59.5626 181.551 62.318 179.041 64.8281L173.672 70.1963L157.853 61.3291C154.005 59.1725 150.828 55.9951 148.671 52.1475L139.803 36.3271L145.172 30.959C147.682 28.4489 150.437 26.6555 153.293 25.4941L155.614 24.8408ZM80.5508 32.21V45.9746L70.8174 36.2412L74.0957 30.3916L80.5508 32.21ZM139.182 36.2412L129.449 45.9746V32.21L135.903 30.3916L139.182 36.2412ZM80.5508 31.6904L74.3477 29.9434L81.5068 17.1689C80.8879 19.3504 80.5508 21.7122 80.5508 24.2393V31.6904ZM73.6006 30.252L70.4502 35.874L65.1816 30.6055C63.3952 28.8191 61.4874 27.3879 59.5078 26.2832L73.6006 30.252ZM150.491 26.2832C148.512 27.3879 146.605 28.8193 144.818 30.6055L139.549 35.874L136.398 30.252L150.491 26.2832ZM81.0508 178.168L98.5078 173.252C102.753 172.056 107.247 172.056 111.492 173.252L128.949 178.168V185.761C128.949 189.311 128.269 192.527 127.07 195.368L125.892 197.471C124.47 200.008 122.758 202.126 120.848 203.85C116.453 207.605 110.755 209.681 105.008 209.748H104.992C99.2446 209.681 93.5463 207.605 89.1514 203.85C87.2409 202.126 85.5304 200.008 84.1084 197.471L82.9297 195.368C81.731 192.527 81.0508 189.311 81.0508 185.761V178.168ZM129.449 178.309L135.651 180.056L128.492 192.83C129.111 190.649 129.449 188.288 129.449 185.761V178.309ZM81.0508 24.2393C81.0508 20.6885 81.7305 17.4714 82.9297 14.6299L84.1084 12.5293C85.5305 9.99219 87.2407 7.87299 89.1514 6.14941C93.5483 2.39223 99.2499 0.315916 105 0.250977C110.75 0.315915 116.451 2.39253 120.848 6.14941C122.759 7.87307 124.469 9.99195 125.892 12.5293L127.069 14.6299C128.269 17.4715 128.949 20.6884 128.949 24.2393V31.8311L111.492 36.748C107.247 37.9437 102.753 37.9437 98.5078 36.748L81.0508 31.8311V24.2393ZM129.449 24.2393C129.449 21.7121 129.111 19.3505 128.492 17.1689L135.651 29.9434L129.449 31.6904V24.2393Z" stroke="black" stroke-width="0.5"/>
</svg>
