<svg width="210" height="210" viewBox="0 0 210 210" fill="none" xmlns="http://www.w3.org/2000/svg">
<path d="M7.22949 156.726C10.9481 161.18 16.0952 164.465 22.6865 165.665L36.5889 168.195C37.9956 168.451 39.418 168.58 40.8428 168.58H183.019C191.03 168.58 197.501 165.103 202.103 159.801C208.14 167.358 209.802 177.563 207.828 186.791C205.195 199.105 196.136 209.5 182.577 209.5H40.4014C39.0368 209.5 37.6741 209.377 36.3262 209.132L22.4238 206.602C7.7742 203.935 0.440406 190.517 0.5 177.015C0.532754 169.615 2.78543 162.267 7.22949 156.726ZM140.739 127.594C146.146 126.674 151.672 127.731 156.53 130.621L194.551 153.242C197.261 154.854 199.555 156.814 201.455 159.021C197.008 164.203 190.744 167.58 183.019 167.58H40.8428C39.4782 167.58 38.1155 167.456 36.7676 167.211L22.8652 164.681C16.4774 163.518 11.4802 160.312 7.88086 155.945C11.4966 151.776 16.435 148.748 22.6826 147.685L140.739 127.594ZM7.88086 114.549C11.541 118.62 16.4723 121.603 22.6865 122.734L36.5889 125.265C37.9956 125.521 39.418 125.649 40.8428 125.649H183.019C190.912 125.649 197.31 122.273 201.897 117.103C208.461 124.728 210.312 135.321 208.27 144.87C207.211 149.82 205.113 154.458 202.104 158.237C200.16 156.007 197.82 154.023 195.062 152.383L157.041 129.762C151.985 126.754 146.219 125.647 140.571 126.608L22.5146 146.699C16.0703 147.796 10.9834 150.894 7.24902 155.145C3.01716 149.591 0.910335 142.356 0.942383 135.095C0.975556 127.58 3.29844 120.119 7.88086 114.549ZM141.181 85.6738C146.587 84.7538 152.113 85.8106 156.972 88.7012L194.993 111.322C197.393 112.75 199.466 114.45 201.229 116.353C196.796 121.386 190.614 124.649 183.019 124.649H40.8428C39.4782 124.649 38.1155 124.526 36.7676 124.28L22.8652 121.75C16.8573 120.657 12.0806 117.755 8.53906 113.78C12.1346 109.738 16.9997 106.807 23.124 105.765L141.181 85.6738ZM7.6709 71.875C11.3895 76.3298 16.5366 79.6139 23.1279 80.8135L37.0303 83.3438C38.437 83.5998 39.8594 83.7285 41.2842 83.7285H183.46C191.471 83.7285 197.943 80.2512 202.544 74.9492C208.582 82.5069 210.243 92.7114 208.27 101.939C207.185 107.01 205.01 111.755 201.881 115.583C200.075 113.65 197.954 111.921 195.504 110.463L157.482 87.8418C152.426 84.8337 146.66 83.7273 141.013 84.6885L22.9561 104.778C16.6194 105.857 11.5963 108.871 7.87988 113.013C3.22562 107.365 0.908778 99.7781 0.942383 92.1641C0.975082 84.7646 3.22694 77.4166 7.6709 71.875ZM141.181 42.7432C146.587 41.8231 152.113 42.88 156.972 45.7705L194.993 68.3916C197.703 70.0039 199.997 71.9636 201.896 74.1709C197.449 79.3526 191.186 82.7285 183.46 82.7285H41.2842C39.9197 82.7285 38.5568 82.6057 37.209 82.3604L23.3066 79.8301C16.9191 78.6675 11.9235 75.4601 8.32422 71.0938C11.9399 66.9253 16.877 63.8971 23.124 62.834L141.181 42.7432ZM141.622 0.823242C147.029 -0.0968161 152.555 0.960034 157.413 3.85059L195.435 26.4717C207.506 33.6539 211.344 47.7062 208.711 60.0195C207.652 64.9692 205.555 69.6076 202.545 73.3867C200.601 71.1561 198.261 69.1726 195.504 67.5322L157.482 44.9111C152.426 41.9031 146.66 40.7967 141.013 41.7578L22.9561 61.8486C16.5119 62.9453 11.4247 66.0425 7.69043 70.293C3.4589 64.7399 1.35179 57.5049 1.38379 50.2441C1.44338 36.7417 8.89421 23.4109 23.5654 20.9141L141.622 0.823242Z" stroke="black"/>
</svg>
