<svg width="213" height="212" viewBox="0 0 213 212" fill="none" xmlns="http://www.w3.org/2000/svg">
<path d="M212 1H213V1.19248e-08H212V1ZM2 211H1V212H2V211ZM203.475 141.861L202.551 141.478L202.551 141.478L203.475 141.861ZM142.861 202.475L142.478 201.551L142.478 201.551L142.861 202.475ZM71.1395 9.52549L71.5221 10.4494L71.5221 10.4494L71.1395 9.52549ZM10.5255 70.1395L11.4494 70.5221L11.4494 70.5221L10.5255 70.1395ZM188.562 187.562L188.562 188.562L189.562 188.563L189.562 187.563L188.562 187.562ZM25.4375 24.4375L25.4375 23.4375L24.4375 23.4375L24.4375 24.4375L25.4375 24.4375ZM98.1387 180.441L98.4896 179.505L98.4896 179.505L98.1387 180.441ZM32.5585 114.861L33.4949 114.51L32.5585 114.861ZM181.441 97.1387L180.505 97.4896L181.441 97.1387ZM115.861 31.5585L115.51 32.4949L115.51 32.4949L115.861 31.5585ZM175.438 174.438L175.437 175.438L176.437 175.438L176.438 174.438L175.438 174.438ZM39.5 38.5L39.5 37.5L38.5 37.5L38.5 38.5L39.5 38.5ZM132.788 172.863L132.621 173.849L132.788 172.863ZM41.0742 81.1498L40.0883 81.3169L41.0742 81.1498ZM173.863 131.788L174.849 131.621L173.863 131.788ZM82.1498 40.0742L82.3169 39.0883L82.1498 40.0742ZM170 1V2H212V1V1.19248e-08H170V1ZM212 1H211V43H212H213V1H212ZM44 211V210H2V211V212H44V211ZM2 211H3V169H2H1V211H2ZM212 43H211C211 69.1064 210.999 88.6361 209.937 104.213C208.874 119.782 206.754 131.329 202.551 141.478L203.475 141.861L204.398 142.243C208.72 131.81 210.863 120.02 211.932 104.35C213.001 88.6884 213 69.079 213 43H212ZM44 211V212C70.079 212 89.6884 212.001 105.35 210.932C121.02 209.863 132.81 207.72 143.243 203.398L142.861 202.475L142.478 201.551C132.329 205.754 120.782 207.874 105.213 208.937C89.6361 209.999 70.1064 210 44 210V211ZM203.475 141.861L202.551 141.478C191.285 168.676 169.676 190.285 142.478 201.551L142.861 202.475L143.243 203.398C170.931 191.93 192.93 169.931 204.398 142.243L203.475 141.861ZM170 1V1.19248e-08C143.921 1.19248e-08 124.312 -0.000541552 108.65 1.06801C92.9804 2.13717 81.1901 4.27998 70.7568 8.60161L71.1395 9.52549L71.5221 10.4494C81.6712 6.24551 93.2184 4.12558 108.787 3.06337C124.364 2.00054 143.894 2 170 2V1ZM2 169H3C3 142.894 3.00054 123.364 4.06337 107.787C5.12558 92.2184 7.24551 80.6712 11.4494 70.5221L10.5255 70.1395L9.60161 69.7568C5.27998 80.1901 3.13717 91.9804 2.06801 107.65C0.999458 123.312 1 142.921 1 169H2ZM71.1395 9.52549L70.7568 8.60161C43.0686 20.0704 21.0704 42.0686 9.60161 69.7568L10.5255 70.1395L11.4494 70.5221C22.7152 43.324 44.324 21.7152 71.5221 10.4494L71.1395 9.52549ZM188.562 187.562L188.563 186.562C164.744 186.562 146.925 186.562 132.684 185.674C118.452 184.787 107.86 183.016 98.4896 179.505L98.1387 180.441L97.7878 181.378C107.421 184.988 118.235 186.777 132.56 187.67C146.877 188.563 164.768 188.562 188.562 188.562L188.562 187.562ZM25.4375 24.4375L24.4375 24.4375C24.4375 48.2316 24.437 66.1228 25.3296 80.4399C26.2226 94.765 28.0123 105.579 31.6221 115.212L32.5585 114.861L33.4949 114.51C29.9837 105.14 28.2129 94.548 27.3257 80.3155C26.4379 66.075 26.4375 48.2565 26.4375 24.4375L25.4375 24.4375ZM98.1387 180.441L98.4896 179.505C68.451 168.249 44.7506 144.549 33.4949 114.51L32.5585 114.861L31.6221 115.212C43.0805 145.792 67.208 169.919 97.7878 181.378L98.1387 180.441ZM188.562 187.562L189.562 187.563C189.563 163.768 189.563 145.877 188.67 131.56C187.777 117.235 185.988 106.421 182.378 96.7878L181.441 97.1387L180.505 97.4896C184.016 106.86 185.787 117.452 186.674 131.684C187.562 145.925 187.563 163.744 187.562 187.562L188.562 187.562ZM25.4375 24.4375L25.4375 25.4375C49.2565 25.4375 67.075 25.4379 81.3155 26.3257C95.548 27.2129 106.14 28.9837 115.51 32.4949L115.861 31.5585L116.212 30.6221C106.579 27.0123 95.765 25.2226 81.4399 24.3296C67.1228 23.437 49.2316 23.4375 25.4375 23.4375L25.4375 24.4375ZM181.441 97.1387L182.378 96.7878C170.919 66.208 146.792 42.0805 116.212 30.6221L115.861 31.5585L115.51 32.4949C145.549 43.7506 169.249 67.451 180.505 97.4896L181.441 97.1387ZM175.438 174.438L175.438 173.438C153.157 173.437 142.141 173.434 132.955 171.877L132.788 172.863L132.621 173.849C142.014 175.441 153.238 175.437 175.437 175.438L175.438 174.438ZM39.5 38.5L38.5 38.5C38.5 60.699 38.4965 71.9231 40.0883 81.3169L41.0742 81.1498L42.0602 80.9827C40.5035 71.7966 40.5 60.7808 40.5 38.5L39.5 38.5ZM132.788 172.863L132.955 171.877C86.4107 163.99 49.9473 127.527 42.0602 80.9827L41.0742 81.1498L40.0883 81.3169C48.1176 128.7 85.2379 165.82 132.621 173.849L132.788 172.863ZM175.438 174.438L176.438 174.438C176.438 152.238 176.441 141.014 174.849 131.621L173.863 131.788L172.877 131.955C174.434 141.141 174.438 152.157 174.438 174.437L175.438 174.438ZM39.5 38.5L39.5 39.5C61.7808 39.5 72.7966 39.5035 81.9827 41.0602L82.1498 40.0742L82.3169 39.0883C72.9231 37.4965 61.699 37.5 39.5 37.5L39.5 38.5ZM173.863 131.788L174.849 131.621C166.82 84.238 129.7 47.1176 82.3169 39.0883L82.1498 40.0742L81.9827 41.0602C128.527 48.9473 164.99 85.4107 172.877 131.955L173.863 131.788ZM212 2L212 1L2 1.00002L2 2.00002L2 3.00002L212 3L212 2ZM1 211L2 211L2 1L1 1L2.67117e-06 1L0 211L1 211ZM211 211H212V1H211H210V211H211ZM2 210V211H212V210V209H2V210Z" fill="black"/>
</svg>
