<svg width="210" height="210" viewBox="0 0 210 210" fill="none" xmlns="http://www.w3.org/2000/svg">
<path d="M105 122.183C108.856 129.847 110.196 138.942 107.894 148.35C101.624 173.964 120.359 194.297 141.874 196.838C135.254 204.419 125.473 209.5 113.248 209.5H95.7285L94.8271 209.489C83.0954 209.234 73.6795 204.264 67.2344 196.932C89.1198 194.856 108.462 174.318 102.106 148.35C99.8038 138.942 101.144 129.847 105 122.183ZM91.748 117.533C89.0108 125.527 83.5713 132.754 75.4209 137.699C52.8522 151.393 51.7439 179.06 65.2051 196.065C55.4469 196.484 45.3175 193.103 36.9395 184.725L24.5693 172.354C24.5636 172.349 24.5577 172.343 24.5518 172.337C15.9693 163.735 12.6454 153.292 13.2891 143.301C30.2323 157.309 58.4326 156.463 72.3008 133.606C77.0975 125.701 84.041 120.346 91.748 117.533ZM117.149 117.149C125.295 119.843 132.675 125.326 137.699 133.606C151.567 156.463 179.766 157.308 196.709 143.301C197.353 153.295 194.028 163.743 185.438 172.347L173.061 184.725C164.416 193.369 153.907 196.693 143.865 196.013C157.282 179.002 156.152 151.378 133.606 137.699C125.326 132.675 119.843 125.295 117.149 117.149ZM100.674 115.44C102.086 117.208 103.347 119.101 104.434 121.1C100.226 129.098 98.7097 138.678 101.135 148.587C107.398 174.176 88.0543 194.355 66.4346 195.992C52.8438 179.473 53.6968 152.049 75.9395 138.554C84.5472 133.331 90.2141 125.619 92.9375 117.121C95.4591 116.294 98.0534 115.733 100.674 115.44ZM109.324 115.441C111.573 115.693 113.802 116.141 115.983 116.785C118.664 125.416 124.367 133.262 133.088 138.554C155.295 152.028 156.181 179.386 142.657 195.913C121.408 193.789 102.69 173.818 108.865 148.587C111.29 138.678 109.773 129.098 105.565 121.1C106.652 119.102 107.912 117.209 109.324 115.441ZM122.1 105.042C130.034 109.125 139.495 110.571 149.274 108.178C174.545 101.993 194.54 120.78 196.61 142.071C180.165 156.201 152.219 155.611 138.554 133.088C133.262 124.367 125.416 118.664 116.785 115.983C116.14 113.802 115.693 111.572 115.441 109.323C117.501 107.678 119.732 106.24 122.1 105.042ZM87.8994 105.042C89.9259 106.068 91.8517 107.269 93.6562 108.626C93.4125 111.233 92.9064 113.818 92.1357 116.336C83.9321 119.147 76.5162 124.732 71.4463 133.088C57.7804 155.611 29.8336 156.201 13.3887 142.071C15.4593 120.78 35.4547 101.993 60.7256 108.178C70.5049 110.571 79.965 109.125 87.8994 105.042ZM13.0684 67.2334C15.1439 89.1192 35.682 108.462 61.6504 102.106C70.6321 99.9081 79.3282 101.03 86.7666 104.491C79.1788 108.208 70.2228 109.472 60.9629 107.206C35.3213 100.93 14.9731 119.71 12.4668 141.254C5.46059 134.824 0.752889 125.598 0.509766 114.18L0.5 113.278V95.7793C0.500094 83.6042 5.53815 73.8519 13.0684 67.2334ZM196.931 67.2344C204.453 73.8464 209.49 83.5848 209.5 95.7432V113.248C209.5 125.096 204.728 134.65 197.532 141.254C195.026 119.71 174.679 100.93 149.037 107.206C139.777 109.473 130.82 108.208 123.232 104.491C130.671 101.03 139.368 99.908 148.35 102.106C174.318 108.462 194.855 89.1198 196.931 67.2344ZM101.857 115.328C103.949 115.159 106.052 115.157 108.144 115.326C106.989 116.82 105.94 118.397 105.007 120.047L105 120.034L104.992 120.047C104.059 118.398 103.011 116.821 101.857 115.328ZM94.5889 109.349C96.5262 110.9 98.3128 112.633 99.9199 114.523C97.6852 114.81 95.4716 115.287 93.3066 115.954L93.3115 115.939L93.2949 115.944C93.9141 113.782 94.3451 111.574 94.5889 109.349ZM114.525 110.08C114.765 111.952 115.138 113.809 115.645 115.635L115.631 115.631L115.635 115.645C113.808 115.138 111.951 114.764 110.078 114.524C111.438 112.926 112.927 111.439 114.525 110.08ZM109.311 94.5938C110.875 96.5395 112.62 98.3354 114.52 99.9551C114.142 102.919 114.099 105.919 114.39 108.891C112.383 110.54 110.539 112.383 108.89 114.39C106.304 114.137 103.696 114.138 101.11 114.391C99.2147 112.084 97.0632 109.994 94.7012 108.165C94.8989 105.676 94.8632 103.172 94.5938 100.689C96.8385 98.8843 98.8832 96.8385 100.688 94.5938C103.553 94.9047 106.446 94.9046 109.311 94.5938ZM115.436 100.713C117.182 102.114 119.048 103.37 121.015 104.462L121 104.47L121.015 104.478C119.012 105.537 117.108 106.765 115.325 108.143C115.125 105.67 115.162 103.18 115.436 100.713ZM93.6621 101.416C93.8475 103.423 93.8777 105.442 93.751 107.452C92.2379 106.352 90.6452 105.356 88.9834 104.477L88.999 104.47L88.9834 104.462C90.6161 103.556 92.1794 102.538 93.6621 101.416ZM14.0068 66.4336C30.5259 52.8427 57.9506 53.6968 71.4463 75.9395C76.4432 84.1751 83.7192 89.7191 91.7822 92.5684C92.6313 95.0707 93.2161 97.647 93.5361 100.252C91.7687 101.633 89.8788 102.861 87.8877 103.919C80.0993 100.106 70.9064 98.8113 61.4131 101.135C35.8231 107.398 15.6432 88.0537 14.0068 66.4336ZM138.554 75.9395C152.049 53.6969 179.473 52.8438 195.992 66.4346C194.355 88.0543 174.176 107.398 148.587 101.135C139.093 98.8113 129.9 100.106 122.111 103.919C119.786 102.683 117.6 101.214 115.585 99.543C115.902 97.3073 116.413 95.0958 117.121 92.9375C125.619 90.2141 133.331 84.5472 138.554 75.9395ZM92.9824 92.9717C95.1206 93.6504 97.308 94.1419 99.5176 94.4482C97.9879 96.2893 96.2893 97.9859 94.4482 99.5156C94.1419 97.3067 93.6502 95.12 92.9717 92.9824L92.9893 92.9893L92.9824 92.9717ZM115.939 93.3115L115.954 93.3066C115.401 95.1026 114.979 96.9321 114.688 98.7793C113.176 97.4471 111.769 95.9984 110.481 94.4482C112.323 94.193 114.149 93.8089 115.944 93.2949L115.939 93.3115ZM105.008 87.9971C106.039 89.9882 107.237 91.8827 108.582 93.6611C106.199 93.8812 103.799 93.8823 101.416 93.6621C102.762 91.8833 103.959 89.9886 104.991 87.9971L105 88.0146L105.008 87.9971ZM142.071 13.3887C156.201 29.8336 155.611 57.7804 133.088 71.4463C124.732 76.5165 119.146 83.9326 116.335 92.1367C114.179 92.7964 111.975 93.2636 109.749 93.5371C108.133 91.4687 106.725 89.2332 105.556 86.8633C109.242 79.1472 110.468 70.0824 108.178 60.7256C101.993 35.4547 120.78 15.4593 142.071 13.3887ZM67.0215 13.3115C88.6818 14.8933 108.095 35.0963 101.822 60.7256C99.5323 70.0822 100.757 79.1472 104.443 86.8633C103.274 89.2326 101.866 91.4672 100.251 93.5352C97.6464 93.2151 95.0703 92.6311 92.5684 91.7822C89.7191 83.7192 84.1751 76.4432 75.9395 71.4463C53.3814 57.7592 52.8238 29.7461 67.0215 13.3115ZM143.301 13.29C153.057 12.6615 163.245 15.8152 171.729 23.9561L172.373 24.5879L184.758 36.9727C193.111 45.344 196.483 55.459 196.065 65.2041C179.06 51.7434 151.393 52.8524 137.699 75.4209C132.754 83.5713 125.527 89.0108 117.533 91.748C120.346 84.041 125.701 77.0975 133.606 72.3008C156.463 58.4328 157.308 30.2333 143.301 13.29ZM37.627 24.5879C45.9692 16.2457 56.0479 12.8559 65.7676 13.2402C51.7175 30.178 52.5424 58.4192 75.4209 72.3008C83.1881 77.0135 88.4929 83.7986 91.3438 91.3438C83.7986 88.4929 77.0135 83.1881 72.3008 75.4209C58.6072 52.8521 30.9394 51.7429 13.9336 65.2041C13.5264 55.7033 16.7216 45.8509 24.623 37.6055L25.2539 36.9609L37.627 24.5879ZM95.7793 0.5H113.295C125.121 0.512522 134.658 5.2805 141.254 12.4668C119.71 14.9731 100.93 35.3214 107.206 60.9629C109.366 69.7873 108.319 78.3355 105 85.6865C101.681 78.3355 100.634 69.7873 102.794 60.9629C109.156 34.9694 89.7693 14.4168 67.8574 12.375C74.4584 5.2303 83.9816 0.500096 95.7793 0.5Z" stroke="black"/>
</svg>
