<svg width="1728" height="605" viewBox="0 0 1728 605" fill="none" xmlns="http://www.w3.org/2000/svg">
<path d="M1727.06 604.5H1482.08L1604.57 422.918L1727.06 604.5ZM1480.2 604.5H1235.23L1357.71 422.918L1480.2 604.5ZM1233.35 604.5H988.368L1110.86 422.918L1233.35 604.5ZM986.488 604.5H741.511L863.999 422.917L986.488 604.5ZM739.632 604.5H494.654L617.143 422.918L739.632 604.5ZM492.774 604.5H247.797L370.285 422.917L492.774 604.5ZM245.917 604.5H0.94043L123.428 422.918L245.917 604.5ZM122.825 422.024L0.5 603.365V366.104L42.8018 303.394L122.825 422.024ZM246.357 366.104V603.365L124.031 422.024L204.055 303.394L246.357 366.104ZM616.54 422.023L494.214 603.365V366.104L536.516 303.394L616.54 422.023ZM740.071 366.103V603.365L617.745 422.024L697.77 303.394L740.071 366.103ZM863.396 422.024L741.071 603.365V366.103L783.373 303.393L863.396 422.024ZM986.929 366.104V603.365L864.603 422.023L944.626 303.394L986.929 366.104ZM1357.11 422.023L1234.79 603.365V366.104L1277.09 303.394L1357.11 422.023ZM1603.97 422.024L1481.64 603.365V366.104L1523.94 303.394L1603.97 422.024ZM1727.5 366.104V603.365L1605.17 422.023L1685.2 303.394L1727.5 366.104ZM369.683 422.023L247.357 603.363V366.103L289.659 303.393L369.683 422.023ZM493.214 366.103V603.363L370.888 422.023L450.912 303.394L493.214 366.103ZM1110.25 422.023L987.929 603.363V366.103L1030.23 303.394L1110.25 422.023ZM1233.79 366.103V603.363L1111.46 422.024L1191.48 303.394L1233.79 366.103ZM1480.64 366.103V603.363L1358.32 422.023L1438.34 303.394L1480.64 366.103ZM203.452 302.5L123.429 421.131L43.4043 302.5L123.428 183.869L203.452 302.5ZM697.166 302.5L617.143 421.131L537.118 302.5L617.143 183.868L697.166 302.5ZM450.309 302.5L370.285 421.13L290.262 302.5L370.285 183.869L450.309 302.5ZM944.023 302.5L864 421.13L783.976 302.499L863.999 183.868L944.023 302.5ZM1190.88 302.5L1110.86 421.13L1030.83 302.499L1110.86 183.869L1190.88 302.5ZM1437.74 302.5L1357.71 421.13L1277.69 302.5L1357.71 183.869L1437.74 302.5ZM1684.59 302.5L1604.57 421.13L1524.55 302.5L1604.57 183.869L1684.59 302.5ZM42.1992 302.5L0.5 364.316V240.683L42.1992 302.5ZM246.357 364.316L204.657 302.5L246.357 240.683V364.316ZM535.913 302.5L494.214 364.316V240.683L535.913 302.5ZM740.071 364.316L698.372 302.5L740.071 240.685V364.316ZM782.771 302.5L741.071 364.316V240.683L782.771 302.5ZM986.929 364.316L945.229 302.5L986.929 240.683V364.316ZM1276.48 302.5L1234.79 364.316V240.683L1276.48 302.5ZM1523.34 302.5L1481.64 364.316V240.683L1523.34 302.5ZM1727.5 364.316L1685.8 302.5L1727.5 240.683V364.316ZM289.056 302.499L247.357 364.314V240.683L289.056 302.499ZM493.214 364.314L451.515 302.5L493.214 240.685V364.314ZM1029.63 302.5L987.929 364.314V240.685L1029.63 302.5ZM1233.79 364.314L1192.09 302.5L1233.79 240.685V364.314ZM1480.64 364.314L1438.94 302.5L1480.64 240.685V364.314ZM122.825 182.976L42.8018 301.606L0.5 238.896V1.63379L122.825 182.976ZM246.357 238.896L204.055 301.606L124.031 182.976L246.357 1.63379V238.896ZM740.071 238.896L697.769 301.606L617.745 182.976L740.071 1.63379V238.896ZM369.683 182.975L289.658 301.605L247.357 238.896V1.63574L369.683 182.975ZM493.214 238.896L450.912 301.605L370.888 182.976L493.214 1.63574V238.896ZM616.54 182.976L536.516 301.605L494.214 238.895V1.63379L616.54 182.976ZM863.396 182.975L783.373 301.605L741.071 238.895V1.63379L863.396 182.975ZM986.929 238.895L944.626 301.605L864.602 182.975L986.929 1.63379V238.895ZM1110.25 182.976L1030.23 301.605L987.929 238.896V1.63574L1110.25 182.976ZM1233.79 238.896L1191.48 301.605L1111.46 182.975L1233.79 1.63574V238.896ZM1357.11 182.976L1277.09 301.605L1234.79 238.895V1.63379L1357.11 182.976ZM1480.64 238.896L1438.34 301.605L1358.32 182.976L1480.64 1.63574V238.896ZM1603.97 182.976L1523.94 301.605L1481.64 238.895V1.63379L1603.97 182.976ZM1727.5 238.895L1685.2 301.605L1605.17 182.976L1727.5 1.63379V238.895ZM739.632 0.5L617.143 182.082L494.654 0.5H739.632ZM986.488 0.5L863.999 182.082L741.511 0.5H986.488ZM1727.06 0.5L1604.57 182.082L1482.08 0.5H1727.06ZM245.917 0.5L123.429 182.081L0.94043 0.5H245.917ZM492.774 0.5L370.285 182.081L247.797 0.5H492.774ZM1233.35 0.5L1110.86 182.081L988.368 0.5H1233.35ZM1480.2 0.5L1357.71 182.081L1235.23 0.5H1480.2Z" stroke="url(#paint0_linear_34_175)"/>
<defs>
<linearGradient id="paint0_linear_34_175" x1="0" y1="0" x2="371.321" y2="1098.33" gradientUnits="userSpaceOnUse">
<stop stop-color="#F8A33B"/>
<stop offset="1" stop-color="#6BE8A6"/>
</linearGradient>
</defs>
</svg>
