<svg width="514" height="618" viewBox="0 0 514 618" fill="none" xmlns="http://www.w3.org/2000/svg">
<path d="M198.213 387.53C201.978 390.974 206.682 393.023 211.797 393.023H229.307C219.466 397.195 211.789 407.7 210.353 421.168L189.858 613.304L189.859 387.53H198.213ZM324.142 387.53L324.141 613.295L303.647 421.168C302.211 407.7 294.534 397.195 284.693 393.023H302.203C307.318 393.023 312.022 390.974 315.787 387.53H324.142ZM257 390.858C259.413 392.182 262.209 392.961 265.376 393.018L264.213 393.392C261.712 394.194 259.302 394.607 256.999 394.681C254.696 394.607 252.288 394.194 249.787 393.392L248.623 393.018C251.791 392.961 254.587 392.182 257 390.858ZM238.931 387.53C240.192 388.828 241.555 389.994 243.012 391.001C243.335 391.224 243.663 391.438 243.995 391.646C239.375 390.62 234.804 390.998 230.585 392.523H211.797C207.014 392.523 202.58 390.673 198.967 387.53H238.931ZM252.678 387.53C253.809 388.705 255.079 389.729 256.487 390.565C254.112 391.811 251.366 392.523 248.255 392.523H247.081L246.238 392.253C246.113 392.213 245.987 392.177 245.862 392.139C244.978 391.677 244.121 391.16 243.296 390.59C241.999 389.693 240.778 388.666 239.636 387.53H252.678ZM274.364 387.53C273.222 388.666 272.001 389.693 270.704 390.59C269.879 391.161 269.021 391.677 268.137 392.139C268.012 392.177 267.886 392.213 267.762 392.253L266.919 392.523H265.745C262.634 392.523 259.887 391.811 257.512 390.565C258.92 389.729 260.191 388.705 261.322 387.53H274.364ZM315.033 387.53C311.42 390.673 306.986 392.523 302.203 392.523H283.416C279.196 390.998 274.625 390.62 270.004 391.646C270.336 391.438 270.665 391.224 270.988 391.001C272.445 389.994 273.808 388.828 275.069 387.53H315.033ZM268.592 392.523C273.092 391.219 277.589 391.299 281.787 392.523H268.592ZM232.213 392.523C236.411 391.299 240.908 391.219 245.408 392.523H232.213ZM260.62 387.53C259.537 388.599 258.33 389.528 257 390.286C255.67 389.528 254.463 388.599 253.38 387.53H260.62ZM325.663 322.118C324.855 327.572 325.176 332.976 326.426 337.976V360.603C326.426 364.32 325.787 367.853 324.641 371.057V324.227C325.003 323.542 325.344 322.839 325.663 322.118ZM187.074 360.603C187.074 364.848 187.896 368.869 189.358 372.447L189.359 387.03H165.621C150.252 387.03 148.535 364.63 163.725 362.288C174.897 360.565 183.56 351.454 187.074 339.792V360.603ZM324.142 387.03H316.317C319.46 383.974 321.897 379.92 323.301 375.276C323.597 374.73 323.877 374.171 324.141 373.599L324.142 387.03ZM322.057 377.351C320.562 381.169 318.332 384.482 315.589 387.03H308.81C314.152 385.781 318.804 382.261 322.057 377.351ZM324.141 366.096C324.141 369.255 323.681 372.281 322.839 375.085C318.912 382.288 312.145 387.03 304.487 387.03H275.544C279.077 383.225 281.774 378.364 283.449 373.047C287.307 360.807 285.776 346.075 276.523 336.151C277.537 334.311 278.325 332.313 278.883 330.231C279.114 330.065 279.343 329.893 279.568 329.715C282.816 334.072 286.687 337.007 290.817 338.678C297.176 341.249 304.124 340.813 310.311 337.994C315.85 335.47 320.778 331.036 324.141 325.137V366.096ZM276.264 336.61C285.271 346.375 286.776 360.826 282.972 372.896C281.264 378.316 278.488 383.24 274.855 387.03H261.788C262.024 386.768 262.253 386.5 262.476 386.225C265.786 382.127 267.644 376.629 267.984 371.012C268.531 361.999 265.166 352.585 257.52 348.12C259.148 347.275 260.959 346.653 262.957 346.301C268.916 345.251 273.41 341.533 276.264 336.61ZM257 348.399C264.627 352.682 268.031 361.974 267.485 370.981C267.15 376.516 265.32 381.908 262.087 385.91C261.774 386.297 261.448 386.67 261.109 387.03H252.891C252.552 386.67 252.226 386.297 251.913 385.91C248.68 381.908 246.85 376.516 246.515 370.981C245.969 361.974 249.373 352.682 257 348.399ZM237.735 336.61C240.589 341.534 245.084 345.251 251.043 346.301C253.04 346.653 254.851 347.275 256.479 348.12C248.834 352.585 245.469 362 246.016 371.012C246.356 376.629 248.214 382.127 251.524 386.225C251.747 386.5 251.976 386.768 252.212 387.03H239.145C235.512 383.24 232.736 378.316 231.028 372.896C227.224 360.826 228.729 346.375 237.735 336.61ZM189.858 325.137C193.221 331.036 198.15 335.47 203.689 337.994C209.876 340.813 216.824 341.249 223.183 338.678C227.313 337.007 231.183 334.071 234.431 329.715C234.656 329.893 234.885 330.065 235.116 330.231C235.674 332.313 236.462 334.311 237.476 336.151C228.223 346.075 226.693 360.807 230.551 373.047C232.226 378.364 234.923 383.225 238.456 387.03H209.513C201.855 387.03 195.087 382.288 191.16 375.085C190.324 372.299 189.864 369.292 189.858 366.154V325.137ZM191.942 377.351C195.195 382.261 199.848 385.781 205.19 387.03H198.411C195.668 384.482 193.437 381.169 191.942 377.351ZM189.858 373.6C190.122 374.172 190.402 374.731 190.698 375.276C192.102 379.92 194.54 383.974 197.683 387.03H189.859L189.858 373.6ZM324.141 372.354C324.07 372.524 323.998 372.694 323.925 372.863C324.004 372.498 324.074 372.13 324.141 371.76V372.354ZM189.858 371.762C189.924 372.131 189.996 372.498 190.074 372.862C190.001 372.694 189.929 372.525 189.858 372.354V371.762ZM256.999 329.411C261.308 333.108 266.613 334.36 271.635 333.392C271.938 333.333 272.239 333.265 272.54 333.19C273.758 334.138 274.879 335.154 275.906 336.23C273.117 341.112 268.703 344.781 262.87 345.809C260.698 346.191 258.743 346.884 257 347.827C255.257 346.884 253.302 346.191 251.13 345.809C245.297 344.781 240.882 341.112 238.093 336.23C239.12 335.154 240.241 334.138 241.459 333.19C241.76 333.265 242.062 333.333 242.365 333.392C247.386 334.36 252.69 333.107 256.999 329.411ZM224.459 306.955C225.14 308.885 225.646 311.03 225.934 313.394C226.805 320.546 229.91 325.966 234.042 329.4C230.841 333.7 227.036 336.58 222.995 338.214C216.777 340.728 209.973 340.308 203.897 337.54C198.217 334.952 193.174 330.31 189.858 324.104V308.458C193.223 315.134 199.211 318.866 205.415 319.409C210.118 319.821 214.933 318.397 218.793 315.046C221.103 313.04 223.065 310.348 224.459 306.955ZM289.54 306.955C290.934 310.348 292.897 313.04 295.207 315.046C299.067 318.397 303.882 319.821 308.585 319.409C314.788 318.866 320.775 315.134 324.141 308.459V324.104C320.825 330.31 315.783 334.952 310.103 337.54C304.027 340.308 297.223 340.728 291.005 338.214C286.963 336.579 283.158 333.7 279.957 329.4C284.09 325.966 287.195 320.547 288.066 313.394C288.354 311.03 288.859 308.885 289.54 306.955ZM235.758 330.674C237.361 331.733 239.078 332.523 240.854 333.03C239.772 333.892 238.769 334.807 237.84 335.771C236.975 334.176 236.278 332.462 235.758 330.674ZM278.241 330.674C277.721 332.462 277.024 334.176 276.159 335.771C275.23 334.807 274.227 333.892 273.146 333.03C274.921 332.523 276.638 331.733 278.241 330.674ZM187.574 320.612C188.545 325.756 188.49 330.877 187.574 335.676V320.612ZM326.426 335.676C325.51 330.875 325.454 325.753 326.426 320.608V335.676ZM253.578 325.637C254.51 326.947 255.531 328.093 256.62 329.077C252.429 332.645 247.298 333.834 242.46 332.9C242.297 332.869 242.134 332.834 241.972 332.798C242.81 332.173 243.692 331.581 244.619 331.023L253.578 325.637ZM269.381 331.023C270.308 331.581 271.19 332.174 272.027 332.798C271.865 332.834 271.703 332.869 271.54 332.9C266.702 333.834 261.569 332.645 257.378 329.077C258.467 328.092 259.489 326.947 260.421 325.637L269.381 331.023ZM242.07 314.228C242.983 315.023 243.977 315.751 245.055 316.399L250.399 319.612L250.793 320.558C251.514 322.291 252.356 323.845 253.293 325.226L244.361 330.596C243.298 331.235 242.294 331.92 241.347 332.646C239.318 332.112 237.354 331.2 235.55 329.926C235.434 329.482 235.333 329.033 235.238 328.581C236.669 326.486 237.967 324.096 239.092 321.391L242.07 314.228ZM274.908 321.391C276.033 324.096 277.33 326.487 278.761 328.581C278.666 329.033 278.565 329.482 278.449 329.926C276.645 331.2 274.682 332.112 272.652 332.646C271.705 331.921 270.702 331.235 269.639 330.596L260.706 325.226C261.644 323.845 262.486 322.29 263.207 320.557L263.599 319.612L268.945 316.399C270.023 315.752 271.017 315.024 271.93 314.229L274.908 321.391ZM234.847 329.143C234.871 329.25 234.897 329.357 234.923 329.464C234.857 329.413 234.792 329.362 234.727 329.311C234.767 329.255 234.807 329.199 234.847 329.143ZM279.273 329.311C279.208 329.362 279.142 329.413 279.076 329.464C279.102 329.357 279.128 329.25 279.152 329.143C279.192 329.199 279.233 329.255 279.273 329.311ZM234.338 283.512C234.831 284.195 235.309 284.913 235.771 285.667C235.115 287.514 234.648 289.453 234.385 291.428C233.583 297.436 234.621 303.816 237.721 309C234.621 314.184 233.583 320.564 234.385 326.572C234.47 327.211 234.578 327.846 234.705 328.476C234.584 328.651 234.461 328.823 234.338 328.994C230.32 325.644 227.285 320.353 226.43 313.333C226.111 310.715 225.528 308.357 224.734 306.253C225.528 304.149 226.111 301.791 226.43 299.174C227.285 292.153 230.32 286.862 234.338 283.512ZM279.661 283.512C283.68 286.862 286.715 292.153 287.57 299.174C287.889 301.791 288.472 304.149 289.265 306.253C288.471 308.357 287.889 310.715 287.57 313.333C286.715 320.354 283.68 325.644 279.661 328.994C279.538 328.823 279.415 328.651 279.294 328.476C279.421 327.846 279.53 327.211 279.615 326.572C280.417 320.563 279.378 314.184 276.278 309C279.378 303.816 280.417 297.437 279.615 291.428C279.352 289.453 278.884 287.514 278.229 285.667C278.69 284.913 279.168 284.195 279.661 283.512ZM259.991 325.379C259.074 326.664 258.07 327.785 257 328.746C255.93 327.785 254.925 326.665 254.008 325.379L257 323.58L259.991 325.379ZM238.018 309.482C239.031 311.085 240.248 312.565 241.675 313.874L238.63 321.198C237.59 323.698 236.404 325.924 235.103 327.89C235.019 327.431 234.943 326.97 234.881 326.506C234.102 320.672 235.087 314.514 238.018 309.482ZM275.981 309.482C278.912 314.514 279.898 320.672 279.119 326.506C279.057 326.97 278.981 327.431 278.896 327.89C277.595 325.924 276.41 323.698 275.37 321.198L272.324 313.874C273.751 312.565 274.968 311.085 275.981 309.482ZM256.515 323.288L253.722 324.968C252.797 323.61 251.967 322.077 251.255 320.365L251.122 320.047L256.515 323.288ZM262.745 320.365C262.033 322.078 261.202 323.61 260.277 324.968L257.484 323.288L262.877 320.047L262.745 320.365ZM189.164 306.945C189.228 307.097 189.292 307.248 189.358 307.397V323.125C188.817 322.025 188.329 320.88 187.899 319.691C187.867 319.538 187.838 319.384 187.804 319.23L187.574 318.196V316.768C187.574 313.061 188.152 309.784 189.164 306.945ZM324.835 306.945C325.847 309.784 326.426 313.061 326.426 316.768V318.196L326.196 319.23C326.162 319.384 326.132 319.538 326.1 319.691C325.67 320.88 325.182 322.025 324.641 323.125V307.397C324.707 307.248 324.771 307.097 324.835 306.945ZM205.458 293.596C210.03 293.195 214.71 294.578 218.465 297.838C220.825 299.887 222.824 302.683 224.2 306.253C222.824 309.823 220.825 312.62 218.465 314.669C214.71 317.928 210.03 319.312 205.458 318.911C199.164 318.36 193.05 314.421 189.858 307.297V305.209C193.05 298.086 199.164 294.147 205.458 293.596ZM295.535 297.838C299.29 294.578 303.97 293.195 308.542 293.596C314.836 294.147 320.949 298.086 324.141 305.209V307.297C320.949 314.42 314.836 318.36 308.542 318.911C303.97 319.312 299.29 317.928 295.535 314.669C293.175 312.62 291.175 309.824 289.799 306.253C291.175 302.683 293.175 299.887 295.535 297.838ZM250.076 318.835L245.312 315.971C244.21 315.309 243.199 314.56 242.273 313.739L245.115 306.904L250.076 318.835ZM271.726 313.739C270.8 314.56 269.789 315.309 268.688 315.971L263.922 318.835L268.884 306.904L271.726 313.739ZM187.083 296.519C187.163 300.189 187.811 303.438 188.887 306.253C187.811 309.068 187.163 312.317 187.083 315.987L186.856 314.963C186.186 311.943 185.84 309.034 185.778 306.253C185.84 303.472 186.186 300.563 186.856 297.544L187.083 296.519ZM327.144 297.544C327.814 300.563 328.159 303.472 328.221 306.253C328.159 309.034 327.814 311.943 327.144 314.963L326.916 315.987C326.836 312.317 326.188 309.068 325.112 306.253C326.188 303.438 326.836 300.189 326.916 296.519L327.144 297.544ZM244.844 306.253L241.88 313.381C240.482 312.075 239.293 310.599 238.308 309C239.67 306.79 241.42 304.813 243.574 303.198L244.844 306.253ZM270.425 303.198C272.579 304.813 274.329 306.79 275.691 309C274.706 310.599 273.517 312.075 272.119 313.381L269.154 306.253L270.425 303.198ZM236.104 286.225C237.017 287.775 237.864 289.467 238.63 291.309L243.376 302.723C241.192 304.338 239.412 306.311 238.018 308.517C235.088 303.486 234.102 297.328 234.881 291.494C235.122 289.688 235.533 287.918 236.104 286.225ZM277.895 286.225C278.466 287.918 278.878 289.688 279.119 291.494C279.898 297.328 278.911 303.485 275.981 308.517C274.587 306.311 272.807 304.337 270.623 302.722L275.37 291.309C276.136 289.467 276.983 287.774 277.895 286.225ZM245.115 305.602L243.99 302.896C244.416 302.593 244.856 302.303 245.312 302.029L247.03 300.995L245.115 305.602ZM268.688 302.029C269.144 302.303 269.583 302.593 270.009 302.896L268.884 305.602L266.969 300.995L268.688 302.029ZM189.358 305.108C189.292 305.258 189.227 305.408 189.163 305.56C188.152 302.722 187.574 299.445 187.574 295.739V294.31L187.804 293.276C187.838 293.123 187.867 292.968 187.899 292.814C188.329 291.626 188.817 290.48 189.358 289.381V305.108ZM324.641 289.381C325.182 290.48 325.67 291.626 326.1 292.814C326.132 292.968 326.162 293.123 326.196 293.276L326.426 294.31V295.738C326.426 299.444 325.847 302.722 324.836 305.56C324.772 305.407 324.707 305.257 324.641 305.107V289.381ZM203.897 274.967C209.973 272.199 216.777 271.778 222.995 274.293C227.036 275.927 230.841 278.806 234.042 283.105C229.91 286.54 226.805 291.96 225.934 299.113C225.646 301.477 225.14 303.621 224.459 305.551C223.065 302.158 221.103 299.466 218.793 297.46C214.933 294.109 210.118 292.686 205.415 293.098C199.211 293.641 193.223 297.372 189.858 304.048V288.402C193.174 282.196 198.217 277.555 203.897 274.967ZM291.005 274.293C297.223 271.778 304.027 272.199 310.103 274.967C315.783 277.555 320.825 282.196 324.141 288.402V304.047C320.775 297.372 314.788 293.641 308.585 293.098C303.882 292.686 299.067 294.11 295.207 297.461C292.897 299.467 290.934 302.158 289.54 305.551C288.859 303.621 288.354 301.477 288.066 299.113C287.195 291.96 284.09 286.54 279.957 283.105C283.158 278.806 286.964 275.927 291.005 274.293ZM237.84 282.229C239.706 284.163 241.873 285.908 244.361 287.404L251.023 291.409C250.945 291.587 250.869 291.767 250.793 291.949L247.354 300.218L245.055 301.601C244.621 301.861 244.2 302.135 243.793 302.421L239.092 291.116C238.257 289.108 237.328 287.273 236.319 285.604C236.747 284.433 237.257 283.304 237.84 282.229ZM276.159 282.229C276.743 283.304 277.252 284.433 277.68 285.604C276.672 287.273 275.743 289.108 274.908 291.116L270.206 302.421C269.799 302.135 269.379 301.861 268.945 301.601L266.646 300.218L263.207 291.949C263.131 291.767 263.054 291.587 262.976 291.409L269.639 287.404C272.127 285.908 274.293 284.163 276.159 282.229ZM256.515 294.711L248.076 299.783L251.255 292.142C251.321 291.983 251.387 291.825 251.455 291.669L256.515 294.711ZM262.745 292.142L265.923 299.783L257.484 294.711L262.544 291.669C262.612 291.825 262.679 291.983 262.745 292.142ZM257 283.76C259.08 285.628 260.912 288.1 262.338 291.21L257 294.419L251.661 291.21C253.088 288.1 254.92 285.628 257 283.76ZM187.574 276.83C188.49 281.63 188.546 286.752 187.574 291.896V276.83ZM326.426 291.896C325.454 286.752 325.51 281.63 326.426 276.83V291.896ZM242.46 279.606C247.298 278.673 252.43 279.861 256.621 283.429C254.52 285.328 252.671 287.825 251.23 290.95L244.619 286.977C242.123 285.476 239.955 283.719 238.093 281.769C238.281 281.439 238.477 281.116 238.68 280.798C239.905 280.253 241.173 279.855 242.46 279.606ZM257.378 283.429C261.569 279.861 266.702 278.673 271.54 279.606C272.827 279.855 274.094 280.253 275.319 280.798C275.522 281.116 275.718 281.439 275.906 281.769C274.045 283.719 271.877 285.476 269.381 286.977L262.769 290.95C261.328 287.825 259.479 285.328 257.378 283.429ZM165.621 225.477H189.358V240.06C187.896 243.638 187.074 247.659 187.074 251.904V272.713C183.559 261.052 174.896 251.941 163.725 250.219C148.535 247.877 150.252 225.477 165.621 225.477ZM326.426 274.529C325.175 279.529 324.855 284.933 325.663 290.387C325.344 289.666 325.003 288.964 324.641 288.28L324.642 251.904C324.642 251.875 324.641 251.846 324.641 251.817V241.447C325.788 244.651 326.426 248.186 326.426 251.904V274.529ZM230.584 225.477C234.804 227.002 239.375 227.379 243.995 226.354C243.663 226.561 243.335 226.776 243.012 226.999C237.205 231.014 232.887 237.541 230.551 244.953C226.781 256.913 228.158 271.251 236.855 281.159C236.019 281.634 235.207 282.178 234.431 282.791C231.183 278.435 227.313 275.499 223.183 273.829C216.824 271.258 209.876 271.693 203.689 274.512C198.15 277.036 193.221 281.47 189.858 287.369L189.859 251.904C189.859 237.264 199.722 225.477 211.797 225.477H230.584ZM302.203 225.477C314.254 225.477 324.102 237.218 324.141 251.818V287.369C320.778 281.47 315.85 277.036 310.311 274.512C304.124 271.693 297.176 271.258 290.817 273.829C286.687 275.499 282.816 278.434 279.568 282.791C278.792 282.178 277.981 281.634 277.144 281.159C285.841 271.251 287.219 256.913 283.449 244.953C281.113 237.541 276.795 231.014 270.988 226.999C270.665 226.776 270.336 226.561 270.004 226.354C274.625 227.379 279.196 227.002 283.416 225.477H302.203ZM237.476 281.848C236.909 282.877 236.416 283.957 235.99 285.071C235.581 284.419 235.159 283.795 234.726 283.195C235.516 282.57 236.342 282.018 237.195 281.541C237.288 281.643 237.381 281.746 237.476 281.848ZM276.804 281.541C277.657 282.018 278.483 282.57 279.273 283.195C278.84 283.795 278.418 284.419 278.009 285.071C277.583 283.956 277.09 282.877 276.523 281.848C276.618 281.746 276.711 281.643 276.804 281.541ZM257 270.172C258.743 271.115 260.698 271.809 262.87 272.191C267.994 273.094 272.023 276.035 274.817 280.045C273.779 279.635 272.714 279.323 271.635 279.115C266.613 278.147 261.308 279.398 256.999 283.095C252.69 279.399 247.386 278.147 242.365 279.115C241.285 279.324 240.22 279.634 239.182 280.045C241.976 276.035 246.006 273.094 251.13 272.191C253.302 271.809 255.257 271.115 257 270.172ZM237.735 281.389C237.707 281.358 237.679 281.326 237.65 281.295C237.717 281.26 237.784 281.226 237.851 281.192C237.812 281.258 237.773 281.323 237.735 281.389ZM276.349 281.295C276.32 281.326 276.292 281.358 276.264 281.389C276.226 281.323 276.187 281.258 276.148 281.192C276.215 281.226 276.282 281.26 276.349 281.295ZM248.255 225.477C251.366 225.477 254.112 226.188 256.487 227.434C254.579 228.567 252.922 230.046 251.524 231.776C248.214 235.874 246.356 241.371 246.016 246.988C245.469 256 248.834 265.414 256.479 269.879C254.851 270.724 253.04 271.347 251.043 271.699C245.489 272.678 241.206 275.973 238.339 280.403C237.99 280.562 237.645 280.731 237.304 280.912C228.681 271.158 227.286 256.979 231.028 245.104C233.339 237.773 237.6 231.349 243.296 227.41C244.121 226.84 244.978 226.322 245.862 225.86C245.987 225.822 246.114 225.787 246.238 225.747L247.081 225.477H248.255ZM266.919 225.477L267.762 225.747C267.886 225.787 268.012 225.822 268.137 225.86C269.022 226.322 269.879 226.839 270.704 227.41C276.4 231.349 280.661 237.773 282.972 245.104C286.714 256.979 285.318 271.158 276.695 280.912C276.354 280.731 276.009 280.562 275.66 280.403C272.793 275.974 268.511 272.678 262.957 271.699C260.959 271.347 259.148 270.724 257.52 269.879C265.166 265.414 268.531 256 267.984 246.988C267.644 241.371 265.786 235.873 262.476 231.775C261.078 230.045 259.42 228.567 257.512 227.434C259.744 226.262 262.306 225.564 265.189 225.484L265.745 225.477H266.919ZM257 227.713C258.965 228.833 260.663 230.327 262.087 232.09C265.32 236.092 267.15 241.484 267.485 247.019C268.031 256.026 264.627 265.317 257.001 269.6C249.374 265.317 245.969 256.026 246.515 247.019C246.85 241.484 248.68 236.092 251.913 232.09C253.337 230.327 255.035 228.833 257 227.713ZM206.546 225.719C198.178 228.124 191.66 236.147 189.858 246.241V240.153C193.034 232.461 199.228 226.913 206.546 225.719ZM307.453 225.719C314.771 226.913 320.964 232.46 324.141 240.15V246.236C322.338 236.144 315.82 228.123 307.453 225.719ZM205.19 225.477C198.57 227.025 193.008 232.06 189.858 238.907V225.477H205.19ZM324.141 225.477V238.905C320.991 232.059 315.429 227.025 308.81 225.477H324.141ZM261.343 225.477C259.78 225.846 258.332 226.41 257 227.141C255.668 226.41 254.22 225.846 252.657 225.477H261.343ZM245.408 225.477C240.908 226.781 236.411 226.701 232.213 225.477H245.408ZM281.787 225.477C277.589 226.701 273.092 226.781 268.592 225.477H281.787ZM324.141 224.977H284.693C294.534 220.805 302.211 210.3 303.647 196.832L324.141 4.7041V224.977ZM256.999 223.318C259.302 223.392 261.712 223.806 264.213 224.608L265.36 224.977H248.64L249.787 224.608C252.288 223.806 254.696 223.392 256.999 223.318ZM210.353 196.832C211.789 210.3 219.466 220.805 229.307 224.977H189.858V4.69531L210.353 196.832ZM187.574 337.976C188.824 332.976 189.144 327.572 188.336 322.118C188.655 322.839 188.996 323.541 189.358 324.226V371.058C188.212 367.854 187.574 364.32 187.574 360.603V337.976ZM326.926 339.791C330.44 351.454 339.103 360.565 350.275 362.288C365.465 364.63 363.748 387.03 348.379 387.03H324.642L324.641 372.446C326.103 368.868 326.926 364.848 326.926 360.603V339.791ZM187.574 251.904C187.574 248.187 188.212 244.654 189.358 241.45V288.278C188.996 288.963 188.656 289.667 188.336 290.388C189.144 284.934 188.825 279.529 187.574 274.529V251.904ZM326.926 251.904C326.926 247.658 326.104 243.636 324.641 240.058V225.477H348.379C363.748 225.477 365.465 247.877 350.275 250.219C339.104 251.941 330.441 261.052 326.926 272.713V251.904Z" stroke="url(#paint0_linear_34_166)" stroke-width="0.5"/>
<defs>
<linearGradient id="paint0_linear_34_166" x1="0" y1="0" x2="618.179" y2="532.455" gradientUnits="userSpaceOnUse">
<stop stop-color="#F8A33B"/>
<stop offset="1" stop-color="#6BE8A6"/>
</linearGradient>
</defs>
</svg>
