<svg width="364" height="362" viewBox="0 0 364 362" fill="none" xmlns="http://www.w3.org/2000/svg">
<path d="M363 1H364V2.04426e-08H363V1ZM2.71564 361H1.71564V362H2.71564V361ZM348.373 242.475L347.45 242.092L347.45 242.092L348.373 242.475ZM244.382 346.385L243.999 345.461L243.999 345.461L244.382 346.385ZM121.334 15.6151L121.716 16.5391L121.716 16.5391L121.334 15.6151ZM17.3423 119.525L18.2661 119.908L18.2661 119.908L17.3423 119.525ZM322.79 320.821L322.79 321.821L323.79 321.821L323.79 320.821L322.79 320.821ZM42.9259 41.1786L42.9259 40.1786L41.9259 40.1786L41.9259 41.1786L42.9259 41.1786ZM167.655 308.614L168.006 307.677L168.006 307.677L167.655 308.614ZM55.143 196.191L56.0794 195.84L55.143 196.191ZM310.573 165.809L309.636 166.16L310.573 165.809ZM198.061 53.386L197.71 54.3225L197.71 54.3225L198.061 53.386ZM300.272 298.321L300.272 299.321L301.272 299.321L301.272 298.321L300.272 298.321ZM67.0521 65.2857L67.0521 64.2857L66.0521 64.2857L66.0521 65.2857L67.0521 65.2857ZM227.1 295.623L226.933 296.609L227.1 295.623ZM69.7529 138.4L68.767 138.567L69.7529 138.4ZM297.571 225.207L298.557 225.04L297.571 225.207ZM140.224 67.9844L140.391 66.9984L140.224 67.9844ZM290.943 1V2H363V1V2.04426e-08H290.943V1ZM363 1H362V73H363H364V1H363ZM74.7725 361V360H2.71564V361V362H74.7725V361ZM2.71564 361H3.71564V289H2.71564H1.71564V361H2.71564ZM363 73H362C362 117.744 361.999 151.252 360.174 177.986C358.349 204.711 354.704 224.592 347.45 242.092L348.373 242.475L349.297 242.858C356.669 225.074 360.338 204.949 362.169 178.122C364.001 151.304 364 117.717 364 73H363ZM74.7725 361V362C119.525 362 153.139 362.001 179.977 360.171C206.825 358.34 226.966 354.675 244.764 347.309L244.382 346.385L243.999 345.461C226.485 352.71 206.587 356.352 179.841 358.175C153.086 359.999 119.552 360 74.7725 360V361ZM348.373 242.475L347.45 242.092C328.049 288.893 290.837 326.075 243.999 345.461L244.382 346.385L244.764 347.309C292.091 327.721 329.693 290.149 349.297 242.858L348.373 242.475ZM290.943 1V2.04426e-08C246.191 2.04426e-08 212.577 -0.000540695 185.738 1.82921C158.891 3.65957 138.75 7.32477 120.952 14.6911L121.334 15.6151L121.716 16.5391C139.23 9.29036 159.128 5.648 185.874 3.82458C212.629 2.00054 246.164 2 290.943 2V1ZM2.71564 289H3.71564C3.71564 244.256 3.71618 210.748 5.54165 184.014C7.36651 157.29 11.0117 137.408 18.2661 119.908L17.3423 119.525L16.4185 119.142C9.04624 136.926 5.37811 157.051 3.5463 183.878C1.7151 210.696 1.71564 244.283 1.71564 289H2.71564ZM121.334 15.6151L120.952 14.6911C73.6242 34.2793 36.0224 71.8513 16.4185 119.142L17.3423 119.525L18.2661 119.908C37.6667 73.1075 74.8788 35.9246 121.716 16.5391L121.334 15.6151ZM322.79 320.821L322.79 319.821C281.934 319.821 251.338 319.821 226.879 318.297C202.428 316.774 184.176 313.732 168.006 307.677L167.655 308.614L167.304 309.55C183.738 315.703 202.211 318.765 226.754 320.294C251.29 321.822 281.959 321.821 322.79 321.821L322.79 320.821ZM42.9259 41.1786L41.9259 41.1786C41.9259 81.9773 41.9255 112.622 43.455 137.138C44.985 161.663 48.0488 180.121 54.2067 196.542L55.143 196.191L56.0794 195.84C50.0202 179.682 46.9754 161.445 45.4511 137.014C43.9264 112.574 43.9259 82.0022 43.9259 41.1786L42.9259 41.1786ZM167.655 308.614L168.006 307.677C116.276 288.31 75.4624 247.528 56.0794 195.84L55.143 196.191L54.2067 196.542C73.7928 248.771 115.034 289.98 167.304 309.55L167.655 308.614ZM322.79 320.821L323.79 320.821C323.79 280.023 323.79 249.378 322.261 224.862C320.731 200.337 317.667 181.879 311.509 165.458L310.573 165.809L309.636 166.16C315.695 182.318 318.74 200.555 320.264 224.986C321.789 249.426 321.79 279.998 321.79 320.821L322.79 320.821ZM42.9259 41.1786L42.9259 42.1786C83.7818 42.1786 114.378 42.179 138.837 43.7026C163.288 45.2256 181.539 48.268 197.71 54.3225L198.061 53.386L198.411 52.4495C181.978 46.2966 163.505 43.2352 138.961 41.7064C114.426 40.1781 83.7569 40.1786 42.9259 40.1786L42.9259 41.1786ZM310.573 165.809L311.509 165.458C291.923 113.229 250.681 72.02 198.411 52.4495L198.061 53.386L197.71 54.3225C249.439 73.6905 290.253 114.472 309.636 166.16L310.573 165.809ZM300.272 298.321L300.272 297.321C262.075 297.321 243.102 297.318 227.267 294.637L227.1 295.623L226.933 296.609C242.975 299.325 262.157 299.321 300.272 299.321L300.272 298.321ZM67.0521 65.2857L66.0521 65.2857C66.0521 103.37 66.0486 122.537 68.767 138.567L69.7529 138.4L70.7389 138.232C68.0557 122.411 68.0521 103.452 68.0521 65.2857L67.0521 65.2857ZM227.1 295.623L227.267 294.637C147.114 281.065 84.3211 218.321 70.7389 138.232L69.7529 138.4L68.767 138.567C82.4916 219.495 145.942 282.895 226.933 296.609L227.1 295.623ZM300.272 298.321L301.272 298.321C301.272 260.237 301.275 241.07 298.557 225.04L297.571 225.207L296.585 225.375C299.268 241.196 299.272 260.155 299.272 298.321L300.272 298.321ZM67.0521 65.2857L67.0521 66.2857C105.249 66.2857 124.222 66.2892 140.057 68.9704L140.224 67.9844L140.391 66.9984C124.349 64.2822 105.167 64.2857 67.0521 64.2857L67.0521 65.2857ZM297.571 225.207L298.557 225.04C284.832 144.112 221.382 80.712 140.391 66.9984L140.224 67.9844L140.057 68.9704C220.21 82.5421 283.003 145.286 296.585 225.375L297.571 225.207ZM363 2.71429L363 1.71429L2.71564 1.71432L2.71564 2.71432L2.71564 3.71432L363 3.71429L363 2.71429ZM1 361L2 361L2 1L1 1L4.58277e-06 1L0 361L1 361ZM361.284 361H362.284V1H361.284H360.284V361H361.284ZM2.71564 359.286V360.286H363V359.286V358.286H2.71564V359.286Z" fill="url(#paint0_linear_34_41)"/>
<defs>
<linearGradient id="paint0_linear_34_41" x1="1" y1="1" x2="364.825" y2="379.872" gradientUnits="userSpaceOnUse">
<stop stop-color="#F8A33B"/>
<stop offset="1" stop-color="#6BE8A6"/>
</linearGradient>
</defs>
</svg>
