<svg width="210" height="210" viewBox="0 0 210 210" fill="none" xmlns="http://www.w3.org/2000/svg">
<path d="M207.15 209.5H180.5V199.854L207.15 209.5ZM29.5 209.5H2.84961L29.5 199.854V209.5ZM179.5 180.5V198.431L157.67 190.53L157.5 190.469L157.33 190.53L105 209.469L52.6699 190.53L52.5 190.469L52.3301 190.53L30.5 198.431V180.5H179.5ZM29.5 180.5V198.792L0.832031 209.167L11.207 180.5H29.5ZM198.793 180.5L209.167 209.167L180.5 198.792V180.5H198.793ZM10.1445 180.5L0.5 207.15V180.5H10.1445ZM209.5 180.5V207.15L199.855 180.5H209.5ZM198.431 30.5L190.53 52.3301L190.469 52.5L190.53 52.6699L209.469 105L190.53 157.33L190.469 157.5L190.53 157.67L198.431 179.5H180.5V30.5H198.431ZM29.5 30.5V179.5H11.5693L19.4697 157.67L19.5312 157.5L19.4697 157.33L0.530273 105L19.4697 52.6699L19.5312 52.5L19.4697 52.3301L11.5693 30.5H29.5ZM209.5 29.5H199.855L209.5 2.84863V29.5ZM198.793 29.5H180.5V11.207L209.167 0.832031L198.793 29.5ZM157.33 19.4697L157.5 19.5322L157.67 19.4697L179.5 11.5684V29.5H30.5V11.5684L52.3301 19.4697L52.5 19.5322L52.6699 19.4697L105 0.530273L157.33 19.4697ZM29.5 11.207V29.5H11.207L0.832031 0.832031L29.5 11.207ZM10.1445 29.5H0.5V2.84863L10.1445 29.5ZM29.5 0.5V10.1445L2.84961 0.5H29.5ZM207.15 0.5L180.5 10.1445V0.5H207.15Z" stroke="url(#paint0_linear_79_381)"/>
<defs>
<linearGradient id="paint0_linear_79_381" x1="0" y1="0" x2="212.276" y2="219.834" gradientUnits="userSpaceOnUse">
<stop stop-color="#F8A33B"/>
<stop offset="1" stop-color="#6BE8A6"/>
</linearGradient>
</defs>
</svg>
